<svg width="15" height="15" viewBox="0 0 15 15" fill="none" xmlns="http://www.w3.org/2000/svg">
<path d="M7.75074 0C3.80731 0 0.580872 3.22644 0.580872 7.16987C0.580872 11.1133 3.80731 14.3397 7.75074 14.3397C11.6942 14.3397 14.9206 11.1133 14.9206 7.16987C14.9206 3.22644 11.6942 0 7.75074 0ZM7.75074 1.79247C10.7262 1.79247 13.1281 4.19437 13.1281 7.16987C13.1281 10.1454 10.7262 12.5473 7.75074 12.5473C4.77525 12.5473 2.37334 10.1454 2.37334 7.16987C2.37334 4.19437 4.77525 1.79247 7.75074 1.79247ZM6.85451 3.58493V7.56421L7.1413 7.79723L8.03754 8.69347L8.64698 9.3746L9.93755 8.08403L9.25641 7.47459L8.64698 6.86515V3.62078H6.85451V3.58493Z" fill="#242423"/>
</svg>
