<svg width="24" height="24" viewBox="0 0 24 24" fill="none" xmlns="http://www.w3.org/2000/svg">
<path fill-rule="evenodd" clip-rule="evenodd" d="M2.60889 1.36619C2.0231 0.780407 1.07335 0.780407 0.487565 1.36619C-0.0982212 1.95198 -0.0982212 2.90173 0.487565 3.48751L9.4394 12.4394L0.487565 21.3912C-0.0982212 21.977 -0.0982212 22.9267 0.487565 23.5125C1.07335 24.0983 2.0231 24.0983 2.60889 23.5125L11.5607 14.5607L20.5126 23.5125C21.0983 24.0983 22.0481 24.0983 22.6339 23.5125C23.2197 22.9267 23.2197 21.977 22.6339 21.3912L13.682 12.4394L22.6339 3.48752C23.2197 2.90174 23.2197 1.95199 22.6339 1.3662C22.0481 0.780416 21.0983 0.780417 20.5126 1.3662L11.5607 10.318L2.60889 1.36619Z" fill="#242423"/>
</svg>
