<svg width="15" height="20" viewBox="0 0 15 20" fill="none" xmlns="http://www.w3.org/2000/svg">
<path fill-rule="evenodd" clip-rule="evenodd" d="M10.8071 15.2377C13.3995 12.3156 15 10.5115 15 7.5C15 3.35786 11.6421 0 7.5 0C3.35786 0 0 3.35786 0 7.5C0 10.549 1.61043 12.3603 4.26631 15.3475C5.2185 16.4184 6.30508 17.6405 7.5 19.125C8.72073 17.5896 9.83385 16.3349 10.8071 15.2377ZM7.47214 11.25C9.54321 11.25 11.2221 9.57107 11.2221 7.5C11.2221 5.42893 9.54321 3.75 7.47214 3.75C5.40107 3.75 3.72214 5.42893 3.72214 7.5C3.72214 9.57107 5.40107 11.25 7.47214 11.25Z" fill="#242423"/>
</svg>
