<svg width="22" height="20" viewBox="0 0 22 20" fill="none" xmlns="http://www.w3.org/2000/svg">
    <path
        d="M9.33644 0.0247757C4.3931 0.0247757 0.371826 3.91456 0.371826 8.69627C0.371826 13.478 4.3931 17.3678 9.33644 17.3678C10.8476 17.3678 12.3332 17.0209 13.5882 16.352C13.6888 16.469 13.8002 16.5768 13.9212 16.674L16.4825 19.1516C16.719 19.409 17.0074 19.617 17.33 19.7627C17.6526 19.9084 18.0026 19.9888 18.3585 19.9989C18.7143 20.009 19.0686 19.9487 19.3995 19.8216C19.7304 19.6945 20.0309 19.5033 20.2827 19.2598C20.5344 19.0163 20.7321 18.7256 20.8635 18.4055C20.9949 18.0854 21.0572 17.7428 21.0468 17.3985C21.0363 17.0543 20.9532 16.7157 20.8025 16.4037C20.6519 16.0917 20.4369 15.8127 20.1708 15.5839L17.6095 13.1063C17.4847 12.9856 17.3474 12.8777 17.1997 12.7843C17.8912 11.5703 18.3267 10.158 18.3267 8.67149C18.3267 3.88978 14.3054 0 9.36206 0L9.33644 0.0247757ZM9.33644 2.50235C12.8967 2.50235 15.7397 5.25245 15.7397 8.69627C15.7397 10.3315 15.125 11.8428 14.0493 12.9577C14.0237 12.9825 13.998 13.0072 13.9724 13.032C13.8514 13.1293 13.74 13.2371 13.6395 13.3541C12.5125 14.3451 10.9757 14.915 9.31083 14.915C5.7506 14.915 2.90753 12.1649 2.90753 8.72105C2.90753 5.27722 5.7506 2.52712 9.31083 2.52712L9.33644 2.50235Z"
        fill="#242423" />
</svg>