<svg width="40" height="40" viewBox="0 0 40 40" fill="none" xmlns="http://www.w3.org/2000/svg">
<circle cx="20" cy="20" r="19" fill="white" stroke="#242423" stroke-width="2"/>
<path d="M20 8C15.875 8 12.5 12.2 12.5 17.375C12.5 22.55 15.875 26.75 20 26.75C24.125 26.75 27.5 22.55 27.5 17.375C27.5 12.2 24.125 8 20 8ZM12.1625 26.75C8.1875 26.9375 6 29.45 6 33.5L12.5 38H27L34.5 33C34.5 28.95 31.85 26.9375 27.8375 26.75C25.8125 29.0375 23.0375 30.5 20 30.5C16.9625 30.5 14.1875 29.0375 12.1625 26.75Z" fill="#242423"/>
</svg>
