<svg width="114" height="114" viewBox="0 0 114 114" fill="none" xmlns="http://www.w3.org/2000/svg">
    <g clip-path="url(#clip0_9_971)">
        <path d="M114 0H0V114H114V0Z" fill="white"/>
        <path d="M7.22926 4.67692H4.67691V7.22927H7.22926V4.67692Z" fill="#D9D9D9"/>
        <path d="M9.7816 4.67692H7.22926V7.22927H9.7816V4.67692Z" fill="#D9D9D9"/>
        <path d="M12.3339 4.67692H9.7816V7.22927H12.3339V4.67692Z" fill="#D9D9D9"/>
        <path d="M14.8863 4.67692H12.3339V7.22927H14.8863V4.67692Z" fill="#D9D9D9"/>
        <path d="M17.4386 4.67692H14.8863V7.22927H17.4386V4.67692Z" fill="#D9D9D9"/>
        <path d="M19.991 4.67692H17.4386V7.22927H19.991V4.67692Z" fill="#D9D9D9"/>
        <path d="M22.5433 4.67692H19.991V7.22927H22.5433V4.67692Z" fill="#D9D9D9"/>
        <path d="M27.648 4.67692H25.0957V7.22927H27.648V4.67692Z" fill="#D9D9D9"/>
        <path d="M32.7527 4.67692H30.2004V7.22927H32.7527V4.67692Z" fill="#D9D9D9"/>
        <path d="M48.0668 4.67692H45.5144V7.22927H48.0668V4.67692Z" fill="#D9D9D9"/>
        <path d="M55.7238 4.67692H53.1715V7.22927H55.7238V4.67692Z" fill="#D9D9D9"/>
        <path d="M63.3809 4.67692H60.8285V7.22927H63.3809V4.67692Z" fill="#D9D9D9"/>
        <path d="M65.9332 4.67692H63.3809V7.22927H65.9332V4.67692Z" fill="#D9D9D9"/>
        <path d="M83.7996 4.67692H81.2473V7.22927H83.7996V4.67692Z" fill="#D9D9D9"/>
        <path d="M94.009 4.67692H91.4566V7.22927H94.009V4.67692Z" fill="#D9D9D9"/>
        <path d="M96.5613 4.67692H94.009V7.22927H96.5613V4.67692Z" fill="#D9D9D9"/>
        <path d="M99.1137 4.67692H96.5613V7.22927H99.1137V4.67692Z" fill="#D9D9D9"/>
        <path d="M101.666 4.67692H99.1137V7.22927H101.666V4.67692Z" fill="#D9D9D9"/>
        <path d="M104.218 4.67692H101.666V7.22927H104.218V4.67692Z" fill="#D9D9D9"/>
        <path d="M106.771 4.67692H104.218V7.22927H106.771V4.67692Z" fill="#D9D9D9"/>
        <path d="M109.323 4.67692H106.771V7.22927H109.323V4.67692Z" fill="#D9D9D9"/>
        <path d="M7.22926 7.22927H4.67691V9.78161H7.22926V7.22927Z" fill="#D9D9D9"/>
        <path d="M22.5433 7.22927H19.991V9.78161H22.5433V7.22927Z" fill="#D9D9D9"/>
        <path d="M30.2004 7.22927H27.648V9.78161H30.2004V7.22927Z" fill="#D9D9D9"/>
        <path d="M32.7527 7.22927H30.2004V9.78161H32.7527V7.22927Z" fill="#D9D9D9"/>
        <path d="M37.8574 7.22927H35.3051V9.78161H37.8574V7.22927Z" fill="#D9D9D9"/>
        <path d="M42.9621 7.22927H40.4097V9.78161H42.9621V7.22927Z" fill="#D9D9D9"/>
        <path d="M45.5144 7.22927H42.9621V9.78161H45.5144V7.22927Z" fill="#D9D9D9"/>
        <path d="M58.2762 7.22927H55.7238V9.78161H58.2762V7.22927Z" fill="#D9D9D9"/>
        <path d="M60.8285 7.22927H58.2762V9.78161H60.8285V7.22927Z" fill="#D9D9D9"/>
        <path d="M65.9332 7.22927H63.3809V9.78161H65.9332V7.22927Z" fill="#D9D9D9"/>
        <path d="M68.4855 7.22927H65.9332V9.78161H68.4855V7.22927Z" fill="#D9D9D9"/>
        <path d="M88.9043 7.22927H86.352V9.78161H88.9043V7.22927Z" fill="#D9D9D9"/>
        <path d="M94.009 7.22927H91.4566V9.78161H94.009V7.22927Z" fill="#D9D9D9"/>
        <path d="M109.323 7.22927H106.771V9.78161H109.323V7.22927Z" fill="#D9D9D9"/>
        <path d="M7.22926 9.78161H4.67691V12.334H7.22926V9.78161Z" fill="#D9D9D9"/>
        <path d="M12.3339 9.78161H9.7816V12.334H12.3339V9.78161Z" fill="#D9D9D9"/>
        <path d="M14.8863 9.78161H12.3339V12.334H14.8863V9.78161Z" fill="#D9D9D9"/>
        <path d="M17.4386 9.78161H14.8863V12.334H17.4386V9.78161Z" fill="#D9D9D9"/>
        <path d="M22.5433 9.78161H19.991V12.334H22.5433V9.78161Z" fill="#D9D9D9"/>
        <path d="M27.648 9.78161H25.0957V12.334H27.648V9.78161Z" fill="#D9D9D9"/>
        <path d="M30.2004 9.78161H27.648V12.334H30.2004V9.78161Z" fill="#D9D9D9"/>
        <path d="M35.3051 9.78161H32.7527V12.334H35.3051V9.78161Z" fill="#D9D9D9"/>
        <path d="M40.4097 9.78161H37.8574V12.334H40.4097V9.78161Z" fill="#D9D9D9"/>
        <path d="M42.9621 9.78161H40.4097V12.334H42.9621V9.78161Z" fill="#D9D9D9"/>
        <path d="M45.5144 9.78161H42.9621V12.334H45.5144V9.78161Z" fill="#D9D9D9"/>
        <path d="M48.0668 9.78161H45.5144V12.334H48.0668V9.78161Z" fill="#D9D9D9"/>
        <path d="M53.1715 9.78161H50.6191V12.334H53.1715V9.78161Z" fill="#D9D9D9"/>
        <path d="M63.3809 9.78161H60.8285V12.334H63.3809V9.78161Z" fill="#D9D9D9"/>
        <path d="M68.4855 9.78161H65.9332V12.334H68.4855V9.78161Z" fill="#D9D9D9"/>
        <path d="M71.0379 9.78161H68.4855V12.334H71.0379V9.78161Z" fill="#D9D9D9"/>
        <path d="M73.5902 9.78161H71.0379V12.334H73.5902V9.78161Z" fill="#D9D9D9"/>
        <path d="M78.6949 9.78161H76.1426V12.334H78.6949V9.78161Z" fill="#D9D9D9"/>
        <path d="M81.2473 9.78161H78.6949V12.334H81.2473V9.78161Z" fill="#D9D9D9"/>
        <path d="M86.352 9.78161H83.7996V12.334H86.352V9.78161Z" fill="#D9D9D9"/>
        <path d="M94.009 9.78161H91.4566V12.334H94.009V9.78161Z" fill="#D9D9D9"/>
        <path d="M99.1137 9.78161H96.5613V12.334H99.1137V9.78161Z" fill="#D9D9D9"/>
        <path d="M101.666 9.78161H99.1137V12.334H101.666V9.78161Z" fill="#D9D9D9"/>
        <path d="M104.218 9.78161H101.666V12.334H104.218V9.78161Z" fill="#D9D9D9"/>
        <path d="M109.323 9.78161H106.771V12.334H109.323V9.78161Z" fill="#D9D9D9"/>
        <path d="M7.22926 12.334H4.67691V14.8863H7.22926V12.334Z" fill="#D9D9D9"/>
        <path d="M12.3339 12.334H9.7816V14.8863H12.3339V12.334Z" fill="#D9D9D9"/>
        <path d="M14.8863 12.334H12.3339V14.8863H14.8863V12.334Z" fill="#D9D9D9"/>
        <path d="M17.4386 12.334H14.8863V14.8863H17.4386V12.334Z" fill="#D9D9D9"/>
        <path d="M22.5433 12.334H19.991V14.8863H22.5433V12.334Z" fill="#D9D9D9"/>
        <path d="M27.648 12.334H25.0957V14.8863H27.648V12.334Z" fill="#D9D9D9"/>
        <path d="M30.2004 12.334H27.648V14.8863H30.2004V12.334Z" fill="#D9D9D9"/>
        <path d="M35.3051 12.334H32.7527V14.8863H35.3051V12.334Z" fill="#D9D9D9"/>
        <path d="M37.8574 12.334H35.3051V14.8863H37.8574V12.334Z" fill="#D9D9D9"/>
        <path d="M40.4097 12.334H37.8574V14.8863H40.4097V12.334Z" fill="#D9D9D9"/>
        <path d="M42.9621 12.334H40.4097V14.8863H42.9621V12.334Z" fill="#D9D9D9"/>
        <path d="M45.5144 12.334H42.9621V14.8863H45.5144V12.334Z" fill="#D9D9D9"/>
        <path d="M48.0668 12.334H45.5144V14.8863H48.0668V12.334Z" fill="#D9D9D9"/>
        <path d="M53.1715 12.334H50.6191V14.8863H53.1715V12.334Z" fill="#D9D9D9"/>
        <path d="M58.2762 12.334H55.7238V14.8863H58.2762V12.334Z" fill="#D9D9D9"/>
        <path d="M60.8285 12.334H58.2762V14.8863H60.8285V12.334Z" fill="#D9D9D9"/>
        <path d="M71.0379 12.334H68.4855V14.8863H71.0379V12.334Z" fill="#D9D9D9"/>
        <path d="M76.1426 12.334H73.5902V14.8863H76.1426V12.334Z" fill="#D9D9D9"/>
        <path d="M81.2473 12.334H78.6949V14.8863H81.2473V12.334Z" fill="#D9D9D9"/>
        <path d="M94.009 12.334H91.4566V14.8863H94.009V12.334Z" fill="#D9D9D9"/>
        <path d="M99.1137 12.334H96.5613V14.8863H99.1137V12.334Z" fill="#D9D9D9"/>
        <path d="M101.666 12.334H99.1137V14.8863H101.666V12.334Z" fill="#D9D9D9"/>
        <path d="M104.218 12.334H101.666V14.8863H104.218V12.334Z" fill="#D9D9D9"/>
        <path d="M109.323 12.334H106.771V14.8863H109.323V12.334Z" fill="#D9D9D9"/>
        <path d="M7.22926 14.8863H4.67691V17.4386H7.22926V14.8863Z" fill="#D9D9D9"/>
        <path d="M12.3339 14.8863H9.7816V17.4386H12.3339V14.8863Z" fill="#D9D9D9"/>
        <path d="M14.8863 14.8863H12.3339V17.4386H14.8863V14.8863Z" fill="#D9D9D9"/>
        <path d="M17.4386 14.8863H14.8863V17.4386H17.4386V14.8863Z" fill="#D9D9D9"/>
        <path d="M22.5433 14.8863H19.991V17.4386H22.5433V14.8863Z" fill="#D9D9D9"/>
        <path d="M35.3051 14.8863H32.7527V17.4386H35.3051V14.8863Z" fill="#D9D9D9"/>
        <path d="M37.8574 14.8863H35.3051V17.4386H37.8574V14.8863Z" fill="#D9D9D9"/>
        <path d="M42.9621 14.8863H40.4097V17.4386H42.9621V14.8863Z" fill="#D9D9D9"/>
        <path d="M45.5144 14.8863H42.9621V17.4386H45.5144V14.8863Z" fill="#D9D9D9"/>
        <path d="M53.1715 14.8863H50.6191V17.4386H53.1715V14.8863Z" fill="#D9D9D9"/>
        <path d="M58.2762 14.8863H55.7238V17.4386H58.2762V14.8863Z" fill="#D9D9D9"/>
        <path d="M65.9332 14.8863H63.3809V17.4386H65.9332V14.8863Z" fill="#D9D9D9"/>
        <path d="M68.4855 14.8863L65.9332 14.8863V17.4386H68.4855V14.8863Z" fill="#D9D9D9"/>
        <path d="M71.0379 14.8863H68.4855V17.4386H71.0379V14.8863Z" fill="#D9D9D9"/>
        <path d="M76.1426 14.8863H73.5902V17.4386H76.1426V14.8863Z" fill="#D9D9D9"/>
        <path d="M94.009 14.8863H91.4566V17.4386H94.009V14.8863Z" fill="#D9D9D9"/>
        <path d="M99.1137 14.8863H96.5613V17.4386H99.1137V14.8863Z" fill="#D9D9D9"/>
        <path d="M101.666 14.8863H99.1137V17.4386H101.666V14.8863Z" fill="#D9D9D9"/>
        <path d="M104.218 14.8863H101.666V17.4386H104.218V14.8863Z" fill="#D9D9D9"/>
        <path d="M109.323 14.8863H106.771V17.4386H109.323V14.8863Z" fill="#D9D9D9"/>
        <path d="M7.22926 17.4386H4.67691V19.991H7.22926V17.4386Z" fill="#D9D9D9"/>
        <path d="M22.5433 17.4386H19.991V19.991H22.5433V17.4386Z" fill="#D9D9D9"/>
        <path d="M27.648 17.4386H25.0957V19.991H27.648V17.4386Z" fill="#D9D9D9"/>
        <path d="M32.7527 17.4386H30.2004V19.991H32.7527V17.4386Z" fill="#D9D9D9"/>
        <path d="M35.3051 17.4386H32.7527V19.991H35.3051V17.4386Z" fill="#D9D9D9"/>
        <path d="M45.5144 17.4386H42.9621V19.991H45.5144V17.4386Z" fill="#D9D9D9"/>
        <path d="M48.0668 17.4386H45.5144V19.991H48.0668V17.4386Z" fill="#D9D9D9"/>
        <path d="M58.2762 17.4386H55.7238V19.991H58.2762V17.4386Z" fill="#D9D9D9"/>
        <path d="M63.3809 17.4386H60.8285V19.991H63.3809V17.4386Z" fill="#D9D9D9"/>
        <path d="M65.9332 17.4386H63.3809V19.991H65.9332V17.4386Z" fill="#D9D9D9"/>
        <path d="M71.0379 17.4386H68.4855V19.991H71.0379V17.4386Z" fill="#D9D9D9"/>
        <path d="M78.6949 17.4386H76.1426V19.991H78.6949V17.4386Z" fill="#D9D9D9"/>
        <path d="M81.2473 17.4386H78.6949V19.991H81.2473V17.4386Z" fill="#D9D9D9"/>
        <path d="M86.352 17.4386H83.7996V19.991H86.352V17.4386Z" fill="#D9D9D9"/>
        <path d="M88.9043 17.4386H86.352V19.991H88.9043V17.4386Z" fill="#D9D9D9"/>
        <path d="M94.009 17.4386H91.4566V19.991H94.009V17.4386Z" fill="#D9D9D9"/>
        <path d="M109.323 17.4386H106.771V19.991H109.323V17.4386Z" fill="#D9D9D9"/>
        <path d="M7.22926 19.991H4.67691V22.5433H7.22926V19.991Z" fill="#D9D9D9"/>
        <path d="M9.7816 19.991H7.22926V22.5433H9.7816V19.991Z" fill="#D9D9D9"/>
        <path d="M12.3339 19.991H9.7816V22.5433H12.3339V19.991Z" fill="#D9D9D9"/>
        <path d="M14.8863 19.991H12.3339V22.5433H14.8863V19.991Z" fill="#D9D9D9"/>
        <path d="M17.4386 19.991H14.8863V22.5433H17.4386V19.991Z" fill="#D9D9D9"/>
        <path d="M19.991 19.991H17.4386V22.5433H19.991V19.991Z" fill="#D9D9D9"/>
        <path d="M22.5433 19.991H19.991V22.5433H22.5433V19.991Z" fill="#D9D9D9"/>
        <path d="M27.648 19.991H25.0957V22.5433H27.648V19.991Z" fill="#D9D9D9"/>
        <path d="M32.7527 19.991H30.2004V22.5433H32.7527V19.991Z" fill="#D9D9D9"/>
        <path d="M37.8574 19.991H35.3051V22.5433H37.8574V19.991Z" fill="#D9D9D9"/>
        <path d="M42.9621 19.991H40.4097V22.5433H42.9621V19.991Z" fill="#D9D9D9"/>
        <path d="M48.0668 19.991H45.5144V22.5433H48.0668V19.991Z" fill="#D9D9D9"/>
        <path d="M53.1715 19.991H50.6191V22.5433H53.1715V19.991Z" fill="#D9D9D9"/>
        <path d="M58.2762 19.991H55.7238V22.5433H58.2762V19.991Z" fill="#D9D9D9"/>
        <path d="M63.3809 19.991H60.8285V22.5433H63.3809V19.991Z" fill="#D9D9D9"/>
        <path d="M68.4855 19.991H65.9332V22.5433H68.4855V19.991Z" fill="#D9D9D9"/>
        <path d="M73.5902 19.991H71.0379V22.5433H73.5902V19.991Z" fill="#D9D9D9"/>
        <path d="M78.6949 19.991H76.1426V22.5433H78.6949V19.991Z" fill="#D9D9D9"/>
        <path d="M83.7996 19.991H81.2473V22.5433H83.7996V19.991Z" fill="#D9D9D9"/>
        <path d="M88.9043 19.991H86.352V22.5433H88.9043V19.991Z" fill="#D9D9D9"/>
        <path d="M94.009 19.991H91.4566V22.5433H94.009V19.991Z" fill="#D9D9D9"/>
        <path d="M96.5613 19.991H94.009V22.5433H96.5613V19.991Z" fill="#D9D9D9"/>
        <path d="M99.1137 19.991H96.5613V22.5433H99.1137V19.991Z" fill="#D9D9D9"/>
        <path d="M101.666 19.991H99.1137V22.5433H101.666V19.991Z" fill="#D9D9D9"/>
        <path d="M104.218 19.991H101.666V22.5433H104.218V19.991Z" fill="#D9D9D9"/>
        <path d="M106.771 19.991H104.218V22.5433H106.771V19.991Z" fill="#D9D9D9"/>
        <path d="M109.323 19.991H106.771V22.5433H109.323V19.991Z" fill="#D9D9D9"/>
        <path d="M27.648 22.5433H25.0957V25.0957H27.648V22.5433Z" fill="#D9D9D9"/>
        <path d="M32.7527 22.5433H30.2004V25.0957H32.7527V22.5433Z" fill="#D9D9D9"/>
        <path d="M37.8574 22.5433H35.3051V25.0957H37.8574V22.5433Z" fill="#D9D9D9"/>
        <path d="M40.4097 22.5433H37.8574V25.0957H40.4097V22.5433Z" fill="#D9D9D9"/>
        <path d="M48.0668 22.5433H45.5144V25.0957H48.0668V22.5433Z" fill="#D9D9D9"/>
        <path d="M53.1715 22.5433H50.6191V25.0957H53.1715V22.5433Z" fill="#D9D9D9"/>
        <path d="M65.9332 22.5433H63.3809V25.0957H65.9332V22.5433Z" fill="#D9D9D9"/>
        <path d="M71.0379 22.5433H68.4855V25.0957H71.0379V22.5433Z" fill="#D9D9D9"/>
        <path d="M78.6949 22.5433H76.1426V25.0957H78.6949V22.5433Z" fill="#D9D9D9"/>
        <path d="M81.2473 22.5433H78.6949V25.0957H81.2473V22.5433Z" fill="#D9D9D9"/>
        <path d="M86.352 22.5433H83.7996V25.0957H86.352V22.5433Z" fill="#D9D9D9"/>
        <path d="M7.22926 25.0957H4.67691V27.648H7.22926V25.0957Z" fill="#D9D9D9"/>
        <path d="M9.7816 25.0957H7.22926V27.648H9.7816V25.0957Z" fill="#D9D9D9"/>
        <path d="M14.8863 25.0957H12.3339V27.648H14.8863V25.0957Z" fill="#D9D9D9"/>
        <path d="M22.5433 25.0957H19.991V27.648H22.5433V25.0957Z" fill="#D9D9D9"/>
        <path d="M25.0957 25.0957H22.5433V27.648H25.0957V25.0957Z" fill="#D9D9D9"/>
        <path d="M30.2004 25.0957H27.648V27.648H30.2004V25.0957Z" fill="#D9D9D9"/>
        <path d="M35.3051 25.0957H32.7527V27.648H35.3051V25.0957Z" fill="#D9D9D9"/>
        <path d="M37.8574 25.0957H35.3051V27.648H37.8574V25.0957Z" fill="#D9D9D9"/>
        <path d="M40.4097 25.0957H37.8574V27.648H40.4097V25.0957Z" fill="#D9D9D9"/>
        <path d="M45.5144 25.0957H42.9621V27.648H45.5144V25.0957Z" fill="#D9D9D9"/>
        <path d="M50.6191 25.0957H48.0668V27.648H50.6191V25.0957Z" fill="#D9D9D9"/>
        <path d="M53.1715 25.0957H50.6191V27.648H53.1715V25.0957Z" fill="#D9D9D9"/>
        <path d="M55.7238 25.0957H53.1715V27.648H55.7238V25.0957Z" fill="#D9D9D9"/>
        <path d="M58.2762 25.0957H55.7238V27.648H58.2762V25.0957Z" fill="#D9D9D9"/>
        <path d="M63.3809 25.0957H60.8285V27.648H63.3809V25.0957Z" fill="#D9D9D9"/>
        <path d="M65.9332 25.0957H63.3809V27.648H65.9332V25.0957Z" fill="#D9D9D9"/>
        <path d="M68.4855 25.0957H65.9332V27.648H68.4855V25.0957Z" fill="#D9D9D9"/>
        <path d="M71.0379 25.0957H68.4855V27.648H71.0379V25.0957Z" fill="#D9D9D9"/>
        <path d="M76.1426 25.0957H73.5902V27.648H76.1426V25.0957Z" fill="#D9D9D9"/>
        <path d="M81.2473 25.0957H78.6949V27.648H81.2473V25.0957Z" fill="#D9D9D9"/>
        <path d="M86.352 25.0957H83.7996V27.648H86.352V25.0957Z" fill="#D9D9D9"/>
        <path d="M88.9043 25.0957H86.352V27.648H88.9043V25.0957Z" fill="#D9D9D9"/>
        <path d="M91.4566 25.0957H88.9043V27.648H91.4566V25.0957Z" fill="#D9D9D9"/>
        <path d="M94.009 25.0957H91.4566V27.648H94.009V25.0957Z" fill="#D9D9D9"/>
        <path d="M96.5613 25.0957H94.009V27.648H96.5613V25.0957Z" fill="#D9D9D9"/>
        <path d="M101.666 25.0957H99.1137V27.648H101.666V25.0957Z" fill="#D9D9D9"/>
        <path d="M104.218 25.0957H101.666V27.648H104.218V25.0957Z" fill="#D9D9D9"/>
        <path d="M109.323 25.0957H106.771V27.648H109.323V25.0957Z" fill="#D9D9D9"/>
        <path d="M7.22926 27.648H4.67691V30.2004H7.22926V27.648Z" fill="#D9D9D9"/>
        <path d="M9.7816 27.648H7.22926V30.2004H9.7816V27.648Z" fill="#D9D9D9"/>
        <path d="M14.8863 27.648H12.3339V30.2004H14.8863V27.648Z" fill="#D9D9D9"/>
        <path d="M17.4386 27.648H14.8863V30.2004H17.4386V27.648Z" fill="#D9D9D9"/>
        <path d="M19.991 27.648H17.4386V30.2004H19.991V27.648Z" fill="#D9D9D9"/>
        <path d="M25.0957 27.648H22.5433V30.2004H25.0957V27.648Z" fill="#D9D9D9"/>
        <path d="M27.648 27.648H25.0957V30.2004H27.648V27.648Z" fill="#D9D9D9"/>
        <path d="M30.2004 27.648H27.648V30.2004H30.2004V27.648Z" fill="#D9D9D9"/>
        <path d="M37.8574 27.648H35.3051V30.2004H37.8574V27.648Z" fill="#D9D9D9"/>
        <path d="M42.9621 27.648H40.4097V30.2004H42.9621V27.648Z" fill="#D9D9D9"/>
        <path d="M45.5144 27.648H42.9621V30.2004H45.5144V27.648Z" fill="#D9D9D9"/>
        <path d="M53.1715 27.648H50.6191V30.2004H53.1715V27.648Z" fill="#D9D9D9"/>
        <path d="M68.4855 27.648H65.9332V30.2004H68.4855V27.648Z" fill="#D9D9D9"/>
        <path d="M71.0379 27.648H68.4855V30.2004H71.0379V27.648Z" fill="#D9D9D9"/>
        <path d="M81.2473 27.648H78.6949V30.2004H81.2473V27.648Z" fill="#D9D9D9"/>
        <path d="M83.7996 27.648H81.2473V30.2004H83.7996V27.648Z" fill="#D9D9D9"/>
        <path d="M86.352 27.648H83.7996V30.2004H86.352V27.648Z" fill="#D9D9D9"/>
        <path d="M88.9043 27.648H86.352V30.2004H88.9043V27.648Z" fill="#D9D9D9"/>
        <path d="M94.009 27.648H91.4566V30.2004H94.009V27.648Z" fill="#D9D9D9"/>
        <path d="M101.666 27.648H99.1137V30.2004H101.666V27.648Z" fill="#D9D9D9"/>
        <path d="M104.218 27.648H101.666V30.2004H104.218V27.648Z" fill="#D9D9D9"/>
        <path d="M106.771 27.648H104.218V30.2004H106.771V27.648Z" fill="#D9D9D9"/>
        <path d="M109.323 27.648H106.771V30.2004H109.323V27.648Z" fill="#D9D9D9"/>
        <path d="M9.7816 30.2004H7.22926V32.7527H9.7816V30.2004Z" fill="#D9D9D9"/>
        <path d="M12.3339 30.2004H9.7816V32.7527H12.3339V30.2004Z" fill="#D9D9D9"/>
        <path d="M14.8863 30.2004H12.3339V32.7527H14.8863V30.2004Z" fill="#D9D9D9"/>
        <path d="M22.5433 30.2004H19.991V32.7527H22.5433V30.2004Z" fill="#D9D9D9"/>
        <path d="M25.0957 30.2004H22.5433V32.7527H25.0957V30.2004Z" fill="#D9D9D9"/>
        <path d="M32.7527 30.2004H30.2004V32.7527H32.7527V30.2004Z" fill="#D9D9D9"/>
        <path d="M35.3051 30.2004H32.7527V32.7527H35.3051V30.2004Z" fill="#D9D9D9"/>
        <path d="M37.8574 30.2004H35.3051V32.7527H37.8574V30.2004Z" fill="#D9D9D9"/>
        <path d="M42.9621 30.2004H40.4097V32.7527H42.9621V30.2004Z" fill="#D9D9D9"/>
        <path d="M45.5144 30.2004H42.9621V32.7527H45.5144V30.2004Z" fill="#D9D9D9"/>
        <path d="M48.0668 30.2004H45.5144V32.7527H48.0668V30.2004Z" fill="#D9D9D9"/>
        <path d="M53.1715 30.2004H50.6191V32.7527H53.1715V30.2004Z" fill="#D9D9D9"/>
        <path d="M55.7238 30.2004H53.1715V32.7527H55.7238V30.2004Z" fill="#D9D9D9"/>
        <path d="M58.2762 30.2004H55.7238V32.7527H58.2762V30.2004Z" fill="#D9D9D9"/>
        <path d="M71.0379 30.2004H68.4855V32.7527H71.0379V30.2004Z" fill="#D9D9D9"/>
        <path d="M73.5902 30.2004H71.0379V32.7527H73.5902V30.2004Z" fill="#D9D9D9"/>
        <path d="M76.1426 30.2004H73.5902V32.7527H76.1426V30.2004Z" fill="#D9D9D9"/>
        <path d="M78.6949 30.2004H76.1426V32.7527H78.6949V30.2004Z" fill="#D9D9D9"/>
        <path d="M86.352 30.2004H83.7996V32.7527H86.352V30.2004Z" fill="#D9D9D9"/>
        <path d="M96.5613 30.2004H94.009V32.7527H96.5613V30.2004Z" fill="#D9D9D9"/>
        <path d="M99.1137 30.2004H96.5613V32.7527H99.1137V30.2004Z" fill="#D9D9D9"/>
        <path d="M106.771 30.2004H104.218V32.7527H106.771V30.2004Z" fill="#D9D9D9"/>
        <path d="M109.323 30.2004H106.771V32.7527H109.323V30.2004Z" fill="#D9D9D9"/>
        <path d="M7.22926 32.7527H4.67691V35.3051H7.22926V32.7527Z" fill="#D9D9D9"/>
        <path d="M9.7816 32.7527H7.22926V35.3051H9.7816V32.7527Z" fill="#D9D9D9"/>
        <path d="M12.3339 32.7527H9.7816V35.3051H12.3339V32.7527Z" fill="#D9D9D9"/>
        <path d="M17.4386 32.7527H14.8863L14.8863 35.3051H17.4386V32.7527Z" fill="#D9D9D9"/>
        <path d="M19.991 32.7527H17.4386V35.3051H19.991V32.7527Z" fill="#D9D9D9"/>
        <path d="M25.0957 32.7527H22.5433V35.3051H25.0957V32.7527Z" fill="#D9D9D9"/>
        <path d="M27.648 32.7527H25.0957V35.3051H27.648V32.7527Z" fill="#D9D9D9"/>
        <path d="M35.3051 32.7527H32.7527V35.3051H35.3051V32.7527Z" fill="#D9D9D9"/>
        <path d="M37.8574 32.7527H35.3051V35.3051H37.8574V32.7527Z" fill="#D9D9D9"/>
        <path d="M48.0668 32.7527H45.5144V35.3051H48.0668V32.7527Z" fill="#D9D9D9"/>
        <path d="M53.1715 32.7527H50.6191V35.3051H53.1715V32.7527Z" fill="#D9D9D9"/>
        <path d="M55.7238 32.7527H53.1715V35.3051H55.7238V32.7527Z" fill="#D9D9D9"/>
        <path d="M58.2762 32.7527H55.7238V35.3051H58.2762V32.7527Z" fill="#D9D9D9"/>
        <path d="M63.3809 32.7527H60.8285V35.3051H63.3809V32.7527Z" fill="#D9D9D9"/>
        <path d="M65.9332 32.7527H63.3809V35.3051H65.9332V32.7527Z" fill="#D9D9D9"/>
        <path d="M78.6949 32.7527H76.1426V35.3051H78.6949V32.7527Z" fill="#D9D9D9"/>
        <path d="M83.7996 32.7527H81.2473V35.3051H83.7996V32.7527Z" fill="#D9D9D9"/>
        <path d="M86.352 32.7527H83.7996V35.3051H86.352V32.7527Z" fill="#D9D9D9"/>
        <path d="M106.771 32.7527H104.218V35.3051H106.771V32.7527Z" fill="#D9D9D9"/>
        <path d="M7.22926 35.3051H4.67691V37.8574H7.22926V35.3051Z" fill="#D9D9D9"/>
        <path d="M12.3339 35.3051H9.7816V37.8574H12.3339V35.3051Z" fill="#D9D9D9"/>
        <path d="M17.4386 35.3051H14.8863V37.8574H17.4386V35.3051Z" fill="#D9D9D9"/>
        <path d="M19.991 35.3051H17.4386V37.8574H19.991V35.3051Z" fill="#D9D9D9"/>
        <path d="M22.5433 35.3051H19.991V37.8574H22.5433V35.3051Z" fill="#D9D9D9"/>
        <path d="M25.0957 35.3051H22.5433V37.8574H25.0957V35.3051Z" fill="#D9D9D9"/>
        <path d="M27.648 35.3051H25.0957V37.8574H27.648V35.3051Z" fill="#D9D9D9"/>
        <path d="M30.2004 35.3051H27.648V37.8574H30.2004V35.3051Z" fill="#D9D9D9"/>
        <path d="M35.3051 35.3051H32.7527V37.8574H35.3051V35.3051Z" fill="#D9D9D9"/>
        <path d="M42.9621 35.3051H40.4097V37.8574H42.9621V35.3051Z" fill="#D9D9D9"/>
        <path d="M53.1715 35.3051H50.6191V37.8574H53.1715V35.3051Z" fill="#D9D9D9"/>
        <path d="M55.7238 35.3051H53.1715V37.8574H55.7238V35.3051Z" fill="#D9D9D9"/>
        <path d="M60.8285 35.3051H58.2762V37.8574H60.8285V35.3051Z" fill="#D9D9D9"/>
        <path d="M63.3809 35.3051H60.8285V37.8574H63.3809V35.3051Z" fill="#D9D9D9"/>
        <path d="M68.4855 35.3051H65.9332V37.8574H68.4855V35.3051Z" fill="#D9D9D9"/>
        <path d="M71.0379 35.3051H68.4855V37.8574H71.0379V35.3051Z" fill="#D9D9D9"/>
        <path d="M73.5902 35.3051H71.0379V37.8574H73.5902V35.3051Z" fill="#D9D9D9"/>
        <path d="M76.1426 35.3051H73.5902V37.8574H76.1426V35.3051Z" fill="#D9D9D9"/>
        <path d="M78.6949 35.3051H76.1426V37.8574H78.6949V35.3051Z" fill="#D9D9D9"/>
        <path d="M86.352 35.3051H83.7996V37.8574H86.352V35.3051Z" fill="#D9D9D9"/>
        <path d="M88.9043 35.3051H86.352V37.8574H88.9043V35.3051Z" fill="#D9D9D9"/>
        <path d="M91.4566 35.3051H88.9043V37.8574H91.4566V35.3051Z" fill="#D9D9D9"/>
        <path d="M96.5613 35.3051H94.009V37.8574H96.5613V35.3051Z" fill="#D9D9D9"/>
        <path d="M99.1137 35.3051H96.5613V37.8574H99.1137V35.3051Z" fill="#D9D9D9"/>
        <path d="M101.666 35.3051H99.1137V37.8574H101.666V35.3051Z" fill="#D9D9D9"/>
        <path d="M7.22926 37.8574H4.67691V40.4098H7.22926V37.8574Z" fill="#D9D9D9"/>
        <path d="M14.8863 37.8574H12.3339V40.4098H14.8863L14.8863 37.8574Z" fill="#D9D9D9"/>
        <path d="M17.4386 37.8574H14.8863L14.8863 40.4098H17.4386V37.8574Z" fill="#D9D9D9"/>
        <path d="M19.991 37.8574H17.4386V40.4098H19.991V37.8574Z" fill="#D9D9D9"/>
        <path d="M25.0957 37.8574H22.5433V40.4098H25.0957V37.8574Z" fill="#D9D9D9"/>
        <path d="M32.7527 37.8574H30.2004V40.4098H32.7527V37.8574Z" fill="#D9D9D9"/>
        <path d="M35.3051 37.8574H32.7527V40.4098H35.3051V37.8574Z" fill="#D9D9D9"/>
        <path d="M40.4097 37.8574H37.8574V40.4098H40.4097V37.8574Z" fill="#D9D9D9"/>
        <path d="M42.9621 37.8574H40.4097V40.4098H42.9621V37.8574Z" fill="#D9D9D9"/>
        <path d="M48.0668 37.8574H45.5144V40.4098H48.0668V37.8574Z" fill="#D9D9D9"/>
        <path d="M60.8285 37.8574H58.2762V40.4098H60.8285V37.8574Z" fill="#D9D9D9"/>
        <path d="M73.5902 37.8574H71.0379V40.4098H73.5902V37.8574Z" fill="#D9D9D9"/>
        <path d="M76.1426 37.8574H73.5902V40.4098H76.1426V37.8574Z" fill="#D9D9D9"/>
        <path d="M78.6949 37.8574H76.1426V40.4098H78.6949V37.8574Z" fill="#D9D9D9"/>
        <path d="M81.2473 37.8574H78.6949V40.4098H81.2473V37.8574Z" fill="#D9D9D9"/>
        <path d="M86.352 37.8574H83.7996V40.4098H86.352V37.8574Z" fill="#D9D9D9"/>
        <path d="M88.9043 37.8574H86.352V40.4098H88.9043V37.8574Z" fill="#D9D9D9"/>
        <path d="M94.009 37.8574H91.4566V40.4098H94.009V37.8574Z" fill="#D9D9D9"/>
        <path d="M106.771 37.8574H104.218V40.4098H106.771V37.8574Z" fill="#D9D9D9"/>
        <path d="M109.323 37.8574H106.771V40.4098H109.323V37.8574Z" fill="#D9D9D9"/>
        <path d="M7.22926 40.4098H4.67691V42.9621H7.22926V40.4098Z" fill="#D9D9D9"/>
        <path d="M14.8863 40.4098H12.3339V42.9621H14.8863V40.4098Z" fill="#D9D9D9"/>
        <path d="M17.4386 40.4098H14.8863V42.9621H17.4386V40.4098Z" fill="#D9D9D9"/>
        <path d="M22.5433 40.4098H19.991V42.9621H22.5433V40.4098Z" fill="#D9D9D9"/>
        <path d="M27.648 40.4098H25.0957V42.9621H27.648V40.4098Z" fill="#D9D9D9"/>
        <path d="M40.4097 40.4098H37.8574V42.9621H40.4097V40.4098Z" fill="#D9D9D9"/>
        <path d="M53.1715 40.4098H50.6191V42.9621H53.1715V40.4098Z" fill="#D9D9D9"/>
        <path d="M55.7238 40.4098H53.1715V42.9621H55.7238V40.4098Z" fill="#D9D9D9"/>
        <path d="M58.2762 40.4098H55.7238V42.9621H58.2762V40.4098Z" fill="#D9D9D9"/>
        <path d="M68.4855 40.4098H65.9332V42.9621H68.4855V40.4098Z" fill="#D9D9D9"/>
        <path d="M81.2473 40.4098H78.6949V42.9621H81.2473V40.4098Z" fill="#D9D9D9"/>
        <path d="M86.352 40.4098H83.7996V42.9621H86.352V40.4098Z" fill="#D9D9D9"/>
        <path d="M88.9043 40.4098H86.352V42.9621H88.9043V40.4098Z" fill="#D9D9D9"/>
        <path d="M91.4566 40.4098H88.9043V42.9621H91.4566V40.4098Z" fill="#D9D9D9"/>
        <path d="M104.218 40.4098H101.666V42.9621H104.218V40.4098Z" fill="#D9D9D9"/>
        <path d="M7.22926 42.9621H4.67691V45.5144H7.22926V42.9621Z" fill="#D9D9D9"/>
        <path d="M9.7816 42.9621H7.22926V45.5144H9.7816V42.9621Z" fill="#D9D9D9"/>
        <path d="M14.8863 42.9621H12.3339V45.5144H14.8863V42.9621Z" fill="#D9D9D9"/>
        <path d="M17.4386 42.9621H14.8863V45.5144H17.4386V42.9621Z" fill="#D9D9D9"/>
        <path d="M25.0957 42.9621H22.5433V45.5144H25.0957V42.9621Z" fill="#D9D9D9"/>
        <path d="M27.648 42.9621H25.0957V45.5144H27.648V42.9621Z" fill="#D9D9D9"/>
        <path d="M30.2004 42.9621H27.648V45.5144H30.2004V42.9621Z" fill="#D9D9D9"/>
        <path d="M32.7527 42.9621H30.2004V45.5144H32.7527V42.9621Z" fill="#D9D9D9"/>
        <path d="M35.3051 42.9621H32.7527V45.5144H35.3051V42.9621Z" fill="#D9D9D9"/>
        <path d="M40.4097 42.9621H37.8574V45.5144H40.4097V42.9621Z" fill="#D9D9D9"/>
        <path d="M42.9621 42.9621H40.4097V45.5144H42.9621V42.9621Z" fill="#D9D9D9"/>
        <path d="M45.5144 42.9621H42.9621V45.5144H45.5144V42.9621Z" fill="#D9D9D9"/>
        <path d="M48.0668 42.9621H45.5144V45.5144H48.0668V42.9621Z" fill="#D9D9D9"/>
        <path d="M58.2762 42.9621H55.7238V45.5144H58.2762V42.9621Z" fill="#D9D9D9"/>
        <path d="M60.8285 42.9621H58.2762V45.5144H60.8285V42.9621Z" fill="#D9D9D9"/>
        <path d="M65.9332 42.9621H63.3809V45.5144H65.9332V42.9621Z" fill="#D9D9D9"/>
        <path d="M73.5902 42.9621H71.0379V45.5144H73.5902V42.9621Z" fill="#D9D9D9"/>
        <path d="M76.1426 42.9621H73.5902V45.5144H76.1426V42.9621Z" fill="#D9D9D9"/>
        <path d="M78.6949 42.9621H76.1426V45.5144H78.6949V42.9621Z" fill="#D9D9D9"/>
        <path d="M83.7996 42.9621H81.2473V45.5144H83.7996V42.9621Z" fill="#D9D9D9"/>
        <path d="M86.352 42.9621H83.7996V45.5144H86.352V42.9621Z" fill="#D9D9D9"/>
        <path d="M91.4566 42.9621H88.9043V45.5144H91.4566V42.9621Z" fill="#D9D9D9"/>
        <path d="M94.009 42.9621H91.4566V45.5144H94.009V42.9621Z" fill="#D9D9D9"/>
        <path d="M109.323 42.9621H106.771V45.5144H109.323V42.9621Z" fill="#D9D9D9"/>
        <path d="M12.3339 45.5144H9.7816V48.0668H12.3339V45.5144Z" fill="#D9D9D9"/>
        <path d="M17.4386 45.5144H14.8863L14.8863 48.0668H17.4386V45.5144Z" fill="#D9D9D9"/>
        <path d="M22.5433 45.5144H19.991V48.0668H22.5433V45.5144Z" fill="#D9D9D9"/>
        <path d="M25.0957 45.5144H22.5433V48.0668H25.0957V45.5144Z" fill="#D9D9D9"/>
        <path d="M30.2004 45.5144H27.648V48.0668H30.2004V45.5144Z" fill="#D9D9D9"/>
        <path d="M35.3051 45.5144H32.7527V48.0668H35.3051V45.5144Z" fill="#D9D9D9"/>
        <path d="M40.4097 45.5144H37.8574V48.0668H40.4097V45.5144Z" fill="#D9D9D9"/>
        <path d="M42.9621 45.5144H40.4097V48.0668H42.9621V45.5144Z" fill="#D9D9D9"/>
        <path d="M48.0668 45.5144H45.5144V48.0668H48.0668V45.5144Z" fill="#D9D9D9"/>
        <path d="M50.6191 45.5144H48.0668V48.0668H50.6191V45.5144Z" fill="#D9D9D9"/>
        <path d="M53.1715 45.5144H50.6191V48.0668H53.1715V45.5144Z" fill="#D9D9D9"/>
        <path d="M55.7238 45.5144H53.1715V48.0668H55.7238V45.5144Z" fill="#D9D9D9"/>
        <path d="M58.2762 45.5144H55.7238V48.0668H58.2762V45.5144Z" fill="#D9D9D9"/>
        <path d="M60.8285 45.5144H58.2762V48.0668H60.8285V45.5144Z" fill="#D9D9D9"/>
        <path d="M71.0379 45.5144H68.4855V48.0668H71.0379V45.5144Z" fill="#D9D9D9"/>
        <path d="M73.5902 45.5144H71.0379V48.0668H73.5902V45.5144Z" fill="#D9D9D9"/>
        <path d="M78.6949 45.5144H76.1426V48.0668H78.6949V45.5144Z" fill="#D9D9D9"/>
        <path d="M81.2473 45.5144H78.6949V48.0668H81.2473V45.5144Z" fill="#D9D9D9"/>
        <path d="M86.352 45.5144H83.7996V48.0668H86.352V45.5144Z" fill="#D9D9D9"/>
        <path d="M88.9043 45.5144H86.352V48.0668H88.9043V45.5144Z" fill="#D9D9D9"/>
        <path d="M91.4566 45.5144H88.9043V48.0668H91.4566V45.5144Z" fill="#D9D9D9"/>
        <path d="M94.009 45.5144H91.4566V48.0668H94.009V45.5144Z" fill="#D9D9D9"/>
        <path d="M99.1137 45.5144H96.5613V48.0668H99.1137V45.5144Z" fill="#D9D9D9"/>
        <path d="M101.666 45.5144H99.1137V48.0668H101.666V45.5144Z" fill="#D9D9D9"/>
        <path d="M106.771 45.5144H104.218V48.0668H106.771V45.5144Z" fill="#D9D9D9"/>
        <path d="M7.22926 48.0668H4.67691V50.6191H7.22926V48.0668Z" fill="#D9D9D9"/>
        <path d="M12.3339 48.0668H9.7816V50.6191H12.3339V48.0668Z" fill="#D9D9D9"/>
        <path d="M17.4386 48.0668H14.8863V50.6191H17.4386V48.0668Z" fill="#D9D9D9"/>
        <path d="M19.991 48.0668H17.4386V50.6191H19.991V48.0668Z" fill="#D9D9D9"/>
        <path d="M25.0957 48.0668H22.5433V50.6191H25.0957V48.0668Z" fill="#D9D9D9"/>
        <path d="M27.648 48.0668H25.0957V50.6191H27.648V48.0668Z" fill="#D9D9D9"/>
        <path d="M32.7527 48.0668H30.2004V50.6191H32.7527V48.0668Z" fill="#D9D9D9"/>
        <path d="M37.8574 48.0668H35.3051V50.6191H37.8574V48.0668Z" fill="#D9D9D9"/>
        <path d="M55.7238 48.0668H53.1715V50.6191H55.7238V48.0668Z" fill="#D9D9D9"/>
        <path d="M60.8285 48.0668H58.2762V50.6191H60.8285V48.0668Z" fill="#D9D9D9"/>
        <path d="M68.4855 48.0668H65.9332V50.6191H68.4855V48.0668Z" fill="#D9D9D9"/>
        <path d="M71.0379 48.0668H68.4855V50.6191H71.0379V48.0668Z" fill="#D9D9D9"/>
        <path d="M73.5902 48.0668H71.0379V50.6191H73.5902V48.0668Z" fill="#D9D9D9"/>
        <path d="M81.2473 48.0668H78.6949V50.6191H81.2473V48.0668Z" fill="#D9D9D9"/>
        <path d="M86.352 48.0668H83.7996V50.6191H86.352V48.0668Z" fill="#D9D9D9"/>
        <path d="M88.9043 48.0668H86.352V50.6191H88.9043V48.0668Z" fill="#D9D9D9"/>
        <path d="M91.4566 48.0668H88.9043V50.6191H91.4566V48.0668Z" fill="#D9D9D9"/>
        <path d="M96.5613 48.0668H94.009V50.6191H96.5613V48.0668Z" fill="#D9D9D9"/>
        <path d="M106.771 48.0668H104.218V50.6191H106.771V48.0668Z" fill="#D9D9D9"/>
        <path d="M7.22926 50.6191H4.67691V53.1715H7.22926V50.6191Z" fill="#D9D9D9"/>
        <path d="M9.7816 50.6191H7.22926V53.1715H9.7816V50.6191Z" fill="#D9D9D9"/>
        <path d="M19.991 50.6191H17.4386V53.1715H19.991V50.6191Z" fill="#D9D9D9"/>
        <path d="M22.5433 50.6191H19.991V53.1715H22.5433V50.6191Z" fill="#D9D9D9"/>
        <path d="M25.0957 50.6191H22.5433V53.1715H25.0957V50.6191Z" fill="#D9D9D9"/>
        <path d="M30.2004 50.6191H27.648V53.1715H30.2004V50.6191Z" fill="#D9D9D9"/>
        <path d="M35.3051 50.6191H32.7527V53.1715H35.3051V50.6191Z" fill="#D9D9D9"/>
        <path d="M40.4097 50.6191H37.8574V53.1715H40.4097V50.6191Z" fill="#D9D9D9"/>
        <path d="M48.0668 50.6191H45.5144V53.1715H48.0668V50.6191Z" fill="#D9D9D9"/>
        <path d="M53.1715 50.6191H50.6191V53.1715H53.1715V50.6191Z" fill="#D9D9D9"/>
        <path d="M55.7238 50.6191H53.1715V53.1715H55.7238V50.6191Z" fill="#D9D9D9"/>
        <path d="M63.3809 50.6191H60.8285V53.1715H63.3809V50.6191Z" fill="#D9D9D9"/>
        <path d="M76.1426 50.6191H73.5902V53.1715H76.1426V50.6191Z" fill="#D9D9D9"/>
        <path d="M78.6949 50.6191H76.1426V53.1715H78.6949V50.6191Z" fill="#D9D9D9"/>
        <path d="M86.352 50.6191H83.7996V53.1715H86.352V50.6191Z" fill="#D9D9D9"/>
        <path d="M91.4566 50.6191H88.9043V53.1715H91.4566V50.6191Z" fill="#D9D9D9"/>
        <path d="M94.009 50.6191H91.4566V53.1715H94.009V50.6191Z" fill="#D9D9D9"/>
        <path d="M106.771 50.6191H104.218V53.1715H106.771V50.6191Z" fill="#D9D9D9"/>
        <path d="M109.323 50.6191H106.771V53.1715H109.323V50.6191Z" fill="#D9D9D9"/>
        <path d="M7.22926 53.1715H4.67691V55.7238H7.22926V53.1715Z" fill="#D9D9D9"/>
        <path d="M12.3339 53.1715H9.7816V55.7238H12.3339V53.1715Z" fill="#D9D9D9"/>
        <path d="M14.8863 53.1715H12.3339V55.7238H14.8863V53.1715Z" fill="#D9D9D9"/>
        <path d="M17.4386 53.1715H14.8863V55.7238H17.4386V53.1715Z" fill="#D9D9D9"/>
        <path d="M19.991 53.1715H17.4386V55.7238H19.991V53.1715Z" fill="#D9D9D9"/>
        <path d="M30.2004 53.1715H27.648V55.7238H30.2004V53.1715Z" fill="#D9D9D9"/>
        <path d="M35.3051 53.1715H32.7527V55.7238H35.3051V53.1715Z" fill="#D9D9D9"/>
        <path d="M37.8574 53.1715H35.3051V55.7238H37.8574V53.1715Z" fill="#D9D9D9"/>
        <path d="M42.9621 53.1715H40.4097V55.7238H42.9621V53.1715Z" fill="#D9D9D9"/>
        <path d="M45.5144 53.1715H42.9621V55.7238H45.5144V53.1715Z" fill="#D9D9D9"/>
        <path d="M55.7238 53.1715H53.1715V55.7238H55.7238V53.1715Z" fill="#D9D9D9"/>
        <path d="M60.8285 53.1715H58.2762V55.7238H60.8285V53.1715Z" fill="#D9D9D9"/>
        <path d="M65.9332 53.1715H63.3809V55.7238H65.9332V53.1715Z" fill="#D9D9D9"/>
        <path d="M68.4855 53.1715H65.9332V55.7238H68.4855V53.1715Z" fill="#D9D9D9"/>
        <path d="M71.0379 53.1715H68.4855V55.7238H71.0379V53.1715Z" fill="#D9D9D9"/>
        <path d="M73.5902 53.1715H71.0379V55.7238H73.5902V53.1715Z" fill="#D9D9D9"/>
        <path d="M76.1426 53.1715H73.5902V55.7238H76.1426V53.1715Z" fill="#D9D9D9"/>
        <path d="M78.6949 53.1715H76.1426V55.7238H78.6949V53.1715Z" fill="#D9D9D9"/>
        <path d="M86.352 53.1715H83.7996V55.7238H86.352V53.1715Z" fill="#D9D9D9"/>
        <path d="M88.9043 53.1715H86.352V55.7238H88.9043V53.1715Z" fill="#D9D9D9"/>
        <path d="M91.4566 53.1715H88.9043V55.7238H91.4566V53.1715Z" fill="#D9D9D9"/>
        <path d="M96.5613 53.1715H94.009V55.7238H96.5613V53.1715Z" fill="#D9D9D9"/>
        <path d="M101.666 53.1715H99.1137V55.7238H101.666V53.1715Z" fill="#D9D9D9"/>
        <path d="M104.218 53.1715H101.666V55.7238H104.218V53.1715Z" fill="#D9D9D9"/>
        <path d="M106.771 53.1715H104.218V55.7238H106.771V53.1715Z" fill="#D9D9D9"/>
        <path d="M109.323 53.1715H106.771V55.7238H109.323V53.1715Z" fill="#D9D9D9"/>
        <path d="M7.22926 55.7238H4.67691V58.2762H7.22926V55.7238Z" fill="#D9D9D9"/>
        <path d="M12.3339 55.7238H9.7816V58.2762H12.3339V55.7238Z" fill="#D9D9D9"/>
        <path d="M19.991 55.7238H17.4386V58.2762H19.991V55.7238Z" fill="#D9D9D9"/>
        <path d="M22.5433 55.7238H19.991V58.2762H22.5433V55.7238Z" fill="#D9D9D9"/>
        <path d="M30.2004 55.7238H27.648V58.2762H30.2004V55.7238Z" fill="#D9D9D9"/>
        <path d="M40.4097 55.7238H37.8574V58.2762H40.4097V55.7238Z" fill="#D9D9D9"/>
        <path d="M45.5144 55.7238H42.9621V58.2762H45.5144V55.7238Z" fill="#D9D9D9"/>
        <path d="M48.0668 55.7238H45.5144V58.2762H48.0668V55.7238Z" fill="#D9D9D9"/>
        <path d="M60.8285 55.7238H58.2762V58.2762H60.8285V55.7238Z" fill="#D9D9D9"/>
        <path d="M65.9332 55.7238H63.3809V58.2762H65.9332V55.7238Z" fill="#D9D9D9"/>
        <path d="M86.352 55.7238H83.7996V58.2762H86.352V55.7238Z" fill="#D9D9D9"/>
        <path d="M91.4566 55.7238H88.9043V58.2762H91.4566V55.7238Z" fill="#D9D9D9"/>
        <path d="M96.5613 55.7238H94.009V58.2762H96.5613V55.7238Z" fill="#D9D9D9"/>
        <path d="M101.666 55.7238H99.1137V58.2762H101.666V55.7238Z" fill="#D9D9D9"/>
        <path d="M106.771 55.7238H104.218V58.2762H106.771V55.7238Z" fill="#D9D9D9"/>
        <path d="M27.648 58.2762H25.0957V60.8285H27.648V58.2762Z" fill="#D9D9D9"/>
        <path d="M45.5144 58.2762H42.9621V60.8285H45.5144V58.2762Z" fill="#D9D9D9"/>
        <path d="M48.0668 58.2762H45.5144V60.8285H48.0668V58.2762Z" fill="#D9D9D9"/>
        <path d="M53.1715 58.2762H50.6191V60.8285H53.1715V58.2762Z" fill="#D9D9D9"/>
        <path d="M58.2762 58.2762H55.7238V60.8285H58.2762V58.2762Z" fill="#D9D9D9"/>
        <path d="M71.0379 58.2762H68.4855V60.8285H71.0379V58.2762Z" fill="#D9D9D9"/>
        <path d="M73.5902 58.2762H71.0379V60.8285H73.5902V58.2762Z" fill="#D9D9D9"/>
        <path d="M76.1426 58.2762H73.5902V60.8285H76.1426V58.2762Z" fill="#D9D9D9"/>
        <path d="M78.6949 58.2762H76.1426V60.8285H78.6949V58.2762Z" fill="#D9D9D9"/>
        <path d="M88.9043 58.2762H86.352V60.8285H88.9043V58.2762Z" fill="#D9D9D9"/>
        <path d="M91.4566 58.2762H88.9043V60.8285H91.4566V58.2762Z" fill="#D9D9D9"/>
        <path d="M106.771 58.2762H104.218V60.8285H106.771V58.2762Z" fill="#D9D9D9"/>
        <path d="M109.323 58.2762H106.771V60.8285H109.323V58.2762Z" fill="#D9D9D9"/>
        <path d="M17.4386 60.8285H14.8863V63.3809H17.4386V60.8285Z" fill="#D9D9D9"/>
        <path d="M22.5433 60.8285H19.991V63.3809H22.5433V60.8285Z" fill="#D9D9D9"/>
        <path d="M25.0957 60.8285H22.5433V63.3809H25.0957V60.8285Z" fill="#D9D9D9"/>
        <path d="M37.8574 60.8285H35.3051V63.3809H37.8574V60.8285Z" fill="#D9D9D9"/>
        <path d="M42.9621 60.8285H40.4097V63.3809H42.9621V60.8285Z" fill="#D9D9D9"/>
        <path d="M45.5144 60.8285H42.9621V63.3809H45.5144V60.8285Z" fill="#D9D9D9"/>
        <path d="M48.0668 60.8285H45.5144V63.3809H48.0668V60.8285Z" fill="#D9D9D9"/>
        <path d="M50.6191 60.8285H48.0668V63.3809H50.6191V60.8285Z" fill="#D9D9D9"/>
        <path d="M53.1715 60.8285H50.6191V63.3809H53.1715V60.8285Z" fill="#D9D9D9"/>
        <path d="M55.7238 60.8285H53.1715V63.3809H55.7238V60.8285Z" fill="#D9D9D9"/>
        <path d="M58.2762 60.8285H55.7238V63.3809H58.2762V60.8285Z" fill="#D9D9D9"/>
        <path d="M60.8285 60.8285H58.2762V63.3809H60.8285V60.8285Z" fill="#D9D9D9"/>
        <path d="M68.4855 60.8285H65.9332V63.3809H68.4855V60.8285Z" fill="#D9D9D9"/>
        <path d="M71.0379 60.8285H68.4855V63.3809H71.0379V60.8285Z" fill="#D9D9D9"/>
        <path d="M76.1426 60.8285H73.5902V63.3809H76.1426V60.8285Z" fill="#D9D9D9"/>
        <path d="M78.6949 60.8285H76.1426V63.3809H78.6949V60.8285Z" fill="#D9D9D9"/>
        <path d="M81.2473 60.8285H78.6949V63.3809H81.2473V60.8285Z" fill="#D9D9D9"/>
        <path d="M83.7996 60.8285H81.2473V63.3809H83.7996V60.8285Z" fill="#D9D9D9"/>
        <path d="M86.352 60.8285H83.7996V63.3809H86.352V60.8285Z" fill="#D9D9D9"/>
        <path d="M94.009 60.8285H91.4566V63.3809H94.009V60.8285Z" fill="#D9D9D9"/>
        <path d="M101.666 60.8285H99.1137V63.3809H101.666V60.8285Z" fill="#D9D9D9"/>
        <path d="M104.218 60.8285H101.666V63.3809H104.218V60.8285Z" fill="#D9D9D9"/>
        <path d="M109.323 60.8285H106.771V63.3809H109.323V60.8285Z" fill="#D9D9D9"/>
        <path d="M7.22926 63.3809H4.67691V65.9332H7.22926V63.3809Z" fill="#D9D9D9"/>
        <path d="M9.7816 63.3809H7.22926V65.9332H9.7816V63.3809Z" fill="#D9D9D9"/>
        <path d="M14.8863 63.3809H12.3339V65.9332H14.8863L14.8863 63.3809Z" fill="#D9D9D9"/>
        <path d="M25.0957 63.3809H22.5433V65.9332H25.0957V63.3809Z" fill="#D9D9D9"/>
        <path d="M30.2004 63.3809H27.648V65.9332H30.2004V63.3809Z" fill="#D9D9D9"/>
        <path d="M32.7527 63.3809H30.2004V65.9332H32.7527V63.3809Z" fill="#D9D9D9"/>
        <path d="M37.8574 63.3809H35.3051V65.9332H37.8574V63.3809Z" fill="#D9D9D9"/>
        <path d="M45.5144 63.3809H42.9621V65.9332H45.5144V63.3809Z" fill="#D9D9D9"/>
        <path d="M48.0668 63.3809H45.5144V65.9332H48.0668V63.3809Z" fill="#D9D9D9"/>
        <path d="M50.6191 63.3809H48.0668V65.9332H50.6191V63.3809Z" fill="#D9D9D9"/>
        <path d="M60.8285 63.3809H58.2762V65.9332H60.8285V63.3809Z" fill="#D9D9D9"/>
        <path d="M63.3809 63.3809H60.8285V65.9332H63.3809V63.3809Z" fill="#D9D9D9"/>
        <path d="M81.2473 63.3809H78.6949V65.9332H81.2473V63.3809Z" fill="#D9D9D9"/>
        <path d="M91.4566 63.3809H88.9043V65.9332H91.4566V63.3809Z" fill="#D9D9D9"/>
        <path d="M94.009 63.3809H91.4566V65.9332H94.009V63.3809Z" fill="#D9D9D9"/>
        <path d="M96.5613 63.3809H94.009V65.9332H96.5613V63.3809Z" fill="#D9D9D9"/>
        <path d="M99.1137 63.3809H96.5613V65.9332H99.1137V63.3809Z" fill="#D9D9D9"/>
        <path d="M106.771 63.3809H104.218V65.9332H106.771V63.3809Z" fill="#D9D9D9"/>
        <path d="M12.3339 65.9332H9.7816V68.4856H12.3339V65.9332Z" fill="#D9D9D9"/>
        <path d="M14.8863 65.9332H12.3339V68.4856H14.8863V65.9332Z" fill="#D9D9D9"/>
        <path d="M17.4386 65.9332H14.8863V68.4856H17.4386V65.9332Z" fill="#D9D9D9"/>
        <path d="M22.5433 65.9332H19.991V68.4856H22.5433V65.9332Z" fill="#D9D9D9"/>
        <path d="M25.0957 65.9332H22.5433V68.4856H25.0957V65.9332Z" fill="#D9D9D9"/>
        <path d="M35.3051 65.9332H32.7527V68.4856H35.3051V65.9332Z" fill="#D9D9D9"/>
        <path d="M42.9621 65.9332H40.4097V68.4856H42.9621V65.9332Z" fill="#D9D9D9"/>
        <path d="M45.5144 65.9332H42.9621V68.4856H45.5144V65.9332Z" fill="#D9D9D9"/>
        <path d="M50.6191 65.9332H48.0668V68.4856H50.6191V65.9332Z" fill="#D9D9D9"/>
        <path d="M53.1715 65.9332H50.6191V68.4856H53.1715V65.9332Z" fill="#D9D9D9"/>
        <path d="M58.2762 65.9332H55.7238V68.4856H58.2762V65.9332Z" fill="#D9D9D9"/>
        <path d="M63.3809 65.9332H60.8285V68.4856H63.3809V65.9332Z" fill="#D9D9D9"/>
        <path d="M68.4855 65.9332H65.9332V68.4856H68.4855V65.9332Z" fill="#D9D9D9"/>
        <path d="M71.0379 65.9332H68.4855V68.4856H71.0379V65.9332Z" fill="#D9D9D9"/>
        <path d="M73.5902 65.9332H71.0379V68.4856H73.5902V65.9332Z" fill="#D9D9D9"/>
        <path d="M81.2473 65.9332H78.6949V68.4856H81.2473V65.9332Z" fill="#D9D9D9"/>
        <path d="M88.9043 65.9332H86.352V68.4856H88.9043V65.9332Z" fill="#D9D9D9"/>
        <path d="M94.009 65.9332H91.4566V68.4856H94.009V65.9332Z" fill="#D9D9D9"/>
        <path d="M96.5613 65.9332H94.009V68.4856H96.5613V65.9332Z" fill="#D9D9D9"/>
        <path d="M99.1137 65.9332H96.5613V68.4856H99.1137V65.9332Z" fill="#D9D9D9"/>
        <path d="M101.666 65.9332H99.1137V68.4856H101.666V65.9332Z" fill="#D9D9D9"/>
        <path d="M104.218 65.9332H101.666V68.4856H104.218V65.9332Z" fill="#D9D9D9"/>
        <path d="M106.771 65.9332H104.218V68.4856H106.771V65.9332Z" fill="#D9D9D9"/>
        <path d="M7.22926 68.4856H4.67691V71.0379H7.22926V68.4856Z" fill="#D9D9D9"/>
        <path d="M12.3339 68.4856H9.7816V71.0379H12.3339V68.4856Z" fill="#D9D9D9"/>
        <path d="M14.8863 68.4856H12.3339V71.0379H14.8863V68.4856Z" fill="#D9D9D9"/>
        <path d="M19.991 68.4856H17.4386V71.0379H19.991V68.4856Z" fill="#D9D9D9"/>
        <path d="M30.2004 68.4856H27.648V71.0379H30.2004V68.4856Z" fill="#D9D9D9"/>
        <path d="M32.7527 68.4856H30.2004V71.0379H32.7527V68.4856Z" fill="#D9D9D9"/>
        <path d="M35.3051 68.4856H32.7527V71.0379H35.3051V68.4856Z" fill="#D9D9D9"/>
        <path d="M37.8574 68.4856H35.3051V71.0379H37.8574V68.4856Z" fill="#D9D9D9"/>
        <path d="M40.4097 68.4856H37.8574V71.0379H40.4097V68.4856Z" fill="#D9D9D9"/>
        <path d="M42.9621 68.4856H40.4097V71.0379H42.9621V68.4856Z" fill="#D9D9D9"/>
        <path d="M48.0668 68.4856H45.5144V71.0379H48.0668V68.4856Z" fill="#D9D9D9"/>
        <path d="M50.6191 68.4856H48.0668V71.0379H50.6191V68.4856Z" fill="#D9D9D9"/>
        <path d="M53.1715 68.4856H50.6191V71.0379H53.1715V68.4856Z" fill="#D9D9D9"/>
        <path d="M63.3809 68.4856H60.8285V71.0379H63.3809V68.4856Z" fill="#D9D9D9"/>
        <path d="M65.9332 68.4856H63.3809V71.0379H65.9332V68.4856Z" fill="#D9D9D9"/>
        <path d="M68.4855 68.4856H65.9332V71.0379H68.4855V68.4856Z" fill="#D9D9D9"/>
        <path d="M71.0379 68.4856H68.4855V71.0379H71.0379V68.4856Z" fill="#D9D9D9"/>
        <path d="M73.5902 68.4856H71.0379V71.0379H73.5902V68.4856Z" fill="#D9D9D9"/>
        <path d="M78.6949 68.4856H76.1426V71.0379H78.6949V68.4856Z" fill="#D9D9D9"/>
        <path d="M81.2473 68.4856H78.6949V71.0379H81.2473V68.4856Z" fill="#D9D9D9"/>
        <path d="M83.7996 68.4856H81.2473V71.0379H83.7996V68.4856Z" fill="#D9D9D9"/>
        <path d="M91.4566 68.4856H88.9043V71.0379H91.4566V68.4856Z" fill="#D9D9D9"/>
        <path d="M94.009 68.4856H91.4566V71.0379H94.009V68.4856Z" fill="#D9D9D9"/>
        <path d="M96.5613 68.4856H94.009V71.0379H96.5613V68.4856Z" fill="#D9D9D9"/>
        <path d="M99.1137 68.4856H96.5613V71.0379H99.1137V68.4856Z" fill="#D9D9D9"/>
        <path d="M101.666 68.4856H99.1137V71.0379H101.666V68.4856Z" fill="#D9D9D9"/>
        <path d="M109.323 68.4856H106.771V71.0379H109.323V68.4856Z" fill="#D9D9D9"/>
        <path d="M9.7816 71.0379H7.22926V73.5902H9.7816V71.0379Z" fill="#D9D9D9"/>
        <path d="M12.3339 71.0379H9.7816V73.5902H12.3339V71.0379Z" fill="#D9D9D9"/>
        <path d="M14.8863 71.0379H12.3339V73.5902H14.8863V71.0379Z" fill="#D9D9D9"/>
        <path d="M17.4386 71.0379H14.8863V73.5902H17.4386V71.0379Z" fill="#D9D9D9"/>
        <path d="M19.991 71.0379H17.4386V73.5902H19.991V71.0379Z" fill="#D9D9D9"/>
        <path d="M22.5433 71.0379H19.991V73.5902H22.5433V71.0379Z" fill="#D9D9D9"/>
        <path d="M25.0957 71.0379H22.5433V73.5902H25.0957V71.0379Z" fill="#D9D9D9"/>
        <path d="M27.648 71.0379H25.0957V73.5902H27.648V71.0379Z" fill="#D9D9D9"/>
        <path d="M30.2004 71.0379H27.648V73.5902H30.2004V71.0379Z" fill="#D9D9D9"/>
        <path d="M37.8574 71.0379H35.3051V73.5902H37.8574V71.0379Z" fill="#D9D9D9"/>
        <path d="M40.4097 71.0379H37.8574V73.5902H40.4097V71.0379Z" fill="#D9D9D9"/>
        <path d="M42.9621 71.0379H40.4097V73.5902H42.9621V71.0379Z" fill="#D9D9D9"/>
        <path d="M45.5144 71.0379H42.9621V73.5902H45.5144V71.0379Z" fill="#D9D9D9"/>
        <path d="M50.6191 71.0379H48.0668V73.5902H50.6191V71.0379Z" fill="#D9D9D9"/>
        <path d="M53.1715 71.0379H50.6191V73.5902H53.1715V71.0379Z" fill="#D9D9D9"/>
        <path d="M58.2762 71.0379H55.7238V73.5902H58.2762V71.0379Z" fill="#D9D9D9"/>
        <path d="M65.9332 71.0379H63.3809V73.5902H65.9332V71.0379Z" fill="#D9D9D9"/>
        <path d="M68.4855 71.0379H65.9332V73.5902H68.4855V71.0379Z" fill="#D9D9D9"/>
        <path d="M71.0379 71.0379H68.4855V73.5902H71.0379V71.0379Z" fill="#D9D9D9"/>
        <path d="M76.1426 71.0379H73.5902V73.5902H76.1426V71.0379Z" fill="#D9D9D9"/>
        <path d="M83.7996 71.0379H81.2473V73.5902H83.7996V71.0379Z" fill="#D9D9D9"/>
        <path d="M86.352 71.0379H83.7996V73.5902H86.352V71.0379Z" fill="#D9D9D9"/>
        <path d="M88.9043 71.0379H86.352V73.5902H88.9043V71.0379Z" fill="#D9D9D9"/>
        <path d="M101.666 71.0379H99.1137V73.5902H101.666V71.0379Z" fill="#D9D9D9"/>
        <path d="M106.771 71.0379H104.218V73.5902H106.771V71.0379Z" fill="#D9D9D9"/>
        <path d="M109.323 71.0379H106.771V73.5902H109.323V71.0379Z" fill="#D9D9D9"/>
        <path d="M14.8863 73.5902H12.3339V76.1426H14.8863V73.5902Z" fill="#D9D9D9"/>
        <path d="M17.4386 73.5902H14.8863V76.1426H17.4386V73.5902Z" fill="#D9D9D9"/>
        <path d="M40.4097 73.5902H37.8574V76.1426H40.4097V73.5902Z" fill="#D9D9D9"/>
        <path d="M50.6191 73.5902H48.0668V76.1426H50.6191V73.5902Z" fill="#D9D9D9"/>
        <path d="M53.1715 73.5902H50.6191V76.1426H53.1715V73.5902Z" fill="#D9D9D9"/>
        <path d="M55.7238 73.5902H53.1715V76.1426H55.7238V73.5902Z" fill="#D9D9D9"/>
        <path d="M58.2762 73.5902H55.7238V76.1426H58.2762V73.5902Z" fill="#D9D9D9"/>
        <path d="M71.0379 73.5902H68.4855V76.1426H71.0379V73.5902Z" fill="#D9D9D9"/>
        <path d="M78.6949 73.5902H76.1426V76.1426H78.6949V73.5902Z" fill="#D9D9D9"/>
        <path d="M81.2473 73.5902H78.6949V76.1426H81.2473V73.5902Z" fill="#D9D9D9"/>
        <path d="M83.7996 73.5902H81.2473V76.1426H83.7996V73.5902Z" fill="#D9D9D9"/>
        <path d="M99.1137 73.5902H96.5613V76.1426H99.1137V73.5902Z" fill="#D9D9D9"/>
        <path d="M101.666 73.5902H99.1137V76.1426H101.666V73.5902Z" fill="#D9D9D9"/>
        <path d="M106.771 73.5902H104.218V76.1426H106.771V73.5902Z" fill="#D9D9D9"/>
        <path d="M109.323 73.5902H106.771V76.1426H109.323V73.5902Z" fill="#D9D9D9"/>
        <path d="M17.4386 76.1426H14.8863L14.8863 78.6949H17.4386V76.1426Z" fill="#D9D9D9"/>
        <path d="M22.5433 76.1426H19.991V78.6949H22.5433V76.1426Z" fill="#D9D9D9"/>
        <path d="M25.0957 76.1426H22.5433V78.6949H25.0957V76.1426Z" fill="#D9D9D9"/>
        <path d="M30.2004 76.1426H27.648V78.6949H30.2004V76.1426Z" fill="#D9D9D9"/>
        <path d="M35.3051 76.1426H32.7527V78.6949H35.3051V76.1426Z" fill="#D9D9D9"/>
        <path d="M40.4097 76.1426H37.8574V78.6949H40.4097V76.1426Z" fill="#D9D9D9"/>
        <path d="M55.7238 76.1426H53.1715V78.6949H55.7238V76.1426Z" fill="#D9D9D9"/>
        <path d="M60.8285 76.1426H58.2762V78.6949H60.8285V76.1426Z" fill="#D9D9D9"/>
        <path d="M63.3809 76.1426H60.8285V78.6949H63.3809V76.1426Z" fill="#D9D9D9"/>
        <path d="M71.0379 76.1426H68.4855V78.6949H71.0379V76.1426Z" fill="#D9D9D9"/>
        <path d="M73.5902 76.1426H71.0379V78.6949H73.5902V76.1426Z" fill="#D9D9D9"/>
        <path d="M76.1426 76.1426H73.5902V78.6949H76.1426V76.1426Z" fill="#D9D9D9"/>
        <path d="M78.6949 76.1426H76.1426V78.6949H78.6949V76.1426Z" fill="#D9D9D9"/>
        <path d="M83.7996 76.1426H81.2473V78.6949H83.7996V76.1426Z" fill="#D9D9D9"/>
        <path d="M86.352 76.1426H83.7996V78.6949H86.352V76.1426Z" fill="#D9D9D9"/>
        <path d="M88.9043 76.1426H86.352V78.6949H88.9043V76.1426Z" fill="#D9D9D9"/>
        <path d="M91.4566 76.1426H88.9043V78.6949H91.4566V76.1426Z" fill="#D9D9D9"/>
        <path d="M94.009 76.1426H91.4566V78.6949H94.009V76.1426Z" fill="#D9D9D9"/>
        <path d="M101.666 76.1426H99.1137V78.6949H101.666V76.1426Z" fill="#D9D9D9"/>
        <path d="M106.771 76.1426H104.218V78.6949H106.771V76.1426Z" fill="#D9D9D9"/>
        <path d="M9.7816 78.6949H7.22926V81.2473H9.7816V78.6949Z" fill="#D9D9D9"/>
        <path d="M14.8863 78.6949H12.3339V81.2473H14.8863L14.8863 78.6949Z" fill="#D9D9D9"/>
        <path d="M17.4386 78.6949H14.8863L14.8863 81.2473H17.4386V78.6949Z" fill="#D9D9D9"/>
        <path d="M19.991 78.6949H17.4386V81.2473H19.991V78.6949Z" fill="#D9D9D9"/>
        <path d="M25.0957 78.6949H22.5433V81.2473H25.0957V78.6949Z" fill="#D9D9D9"/>
        <path d="M27.648 78.6949H25.0957V81.2473H27.648V78.6949Z" fill="#D9D9D9"/>
        <path d="M30.2004 78.6949H27.648V81.2473H30.2004V78.6949Z" fill="#D9D9D9"/>
        <path d="M37.8574 78.6949H35.3051V81.2473H37.8574V78.6949Z" fill="#D9D9D9"/>
        <path d="M42.9621 78.6949H40.4097V81.2473H42.9621V78.6949Z" fill="#D9D9D9"/>
        <path d="M50.6191 78.6949H48.0668V81.2473H50.6191V78.6949Z" fill="#D9D9D9"/>
        <path d="M55.7238 78.6949H53.1715V81.2473H55.7238V78.6949Z" fill="#D9D9D9"/>
        <path d="M58.2762 78.6949H55.7238V81.2473H58.2762V78.6949Z" fill="#D9D9D9"/>
        <path d="M68.4855 78.6949H65.9332V81.2473H68.4855V78.6949Z" fill="#D9D9D9"/>
        <path d="M73.5902 78.6949H71.0379V81.2473H73.5902V78.6949Z" fill="#D9D9D9"/>
        <path d="M81.2473 78.6949H78.6949V81.2473H81.2473V78.6949Z" fill="#D9D9D9"/>
        <path d="M86.352 78.6949H83.7996V81.2473H86.352V78.6949Z" fill="#D9D9D9"/>
        <path d="M88.9043 78.6949H86.352V81.2473H88.9043V78.6949Z" fill="#D9D9D9"/>
        <path d="M94.009 78.6949H91.4566V81.2473H94.009V78.6949Z" fill="#D9D9D9"/>
        <path d="M99.1137 78.6949H96.5613V81.2473H99.1137V78.6949Z" fill="#D9D9D9"/>
        <path d="M101.666 78.6949H99.1137V81.2473H101.666V78.6949Z" fill="#D9D9D9"/>
        <path d="M104.218 78.6949H101.666V81.2473H104.218V78.6949Z" fill="#D9D9D9"/>
        <path d="M7.22926 81.2473H4.67691V83.7996H7.22926V81.2473Z" fill="#D9D9D9"/>
        <path d="M9.7816 81.2473H7.22926V83.7996H9.7816V81.2473Z" fill="#D9D9D9"/>
        <path d="M12.3339 81.2473H9.7816V83.7996H12.3339V81.2473Z" fill="#D9D9D9"/>
        <path d="M14.8863 81.2473H12.3339V83.7996H14.8863V81.2473Z" fill="#D9D9D9"/>
        <path d="M19.991 81.2473H17.4386V83.7996H19.991V81.2473Z" fill="#D9D9D9"/>
        <path d="M22.5433 81.2473H19.991V83.7996H22.5433V81.2473Z" fill="#D9D9D9"/>
        <path d="M25.0957 81.2473H22.5433V83.7996H25.0957V81.2473Z" fill="#D9D9D9"/>
        <path d="M27.648 81.2473H25.0957V83.7996H27.648V81.2473Z" fill="#D9D9D9"/>
        <path d="M35.3051 81.2473H32.7527V83.7996H35.3051V81.2473Z" fill="#D9D9D9"/>
        <path d="M42.9621 81.2473H40.4097V83.7996H42.9621V81.2473Z" fill="#D9D9D9"/>
        <path d="M55.7238 81.2473H53.1715V83.7996H55.7238V81.2473Z" fill="#D9D9D9"/>
        <path d="M58.2762 81.2473H55.7238V83.7996H58.2762V81.2473Z" fill="#D9D9D9"/>
        <path d="M60.8285 81.2473H58.2762V83.7996H60.8285V81.2473Z" fill="#D9D9D9"/>
        <path d="M63.3809 81.2473H60.8285V83.7996H63.3809V81.2473Z" fill="#D9D9D9"/>
        <path d="M65.9332 81.2473H63.3809V83.7996H65.9332V81.2473Z" fill="#D9D9D9"/>
        <path d="M71.0379 81.2473H68.4855V83.7996H71.0379V81.2473Z" fill="#D9D9D9"/>
        <path d="M73.5902 81.2473H71.0379V83.7996H73.5902V81.2473Z" fill="#D9D9D9"/>
        <path d="M78.6949 81.2473H76.1426V83.7996H78.6949V81.2473Z" fill="#D9D9D9"/>
        <path d="M86.352 81.2473H83.7996V83.7996H86.352V81.2473Z" fill="#D9D9D9"/>
        <path d="M88.9043 81.2473H86.352V83.7996H88.9043V81.2473Z" fill="#D9D9D9"/>
        <path d="M94.009 81.2473H91.4566V83.7996H94.009V81.2473Z" fill="#D9D9D9"/>
        <path d="M104.218 81.2473H101.666V83.7996H104.218V81.2473Z" fill="#D9D9D9"/>
        <path d="M7.22926 83.7996H4.67691V86.352H7.22926V83.7996Z" fill="#D9D9D9"/>
        <path d="M17.4386 83.7996H14.8863L14.8863 86.352H17.4386V83.7996Z" fill="#D9D9D9"/>
        <path d="M19.991 83.7996H17.4386V86.352H19.991V83.7996Z" fill="#D9D9D9"/>
        <path d="M25.0957 83.7996H22.5433V86.352H25.0957V83.7996Z" fill="#D9D9D9"/>
        <path d="M30.2004 83.7996H27.648V86.352H30.2004V83.7996Z" fill="#D9D9D9"/>
        <path d="M37.8574 83.7996H35.3051V86.352H37.8574V83.7996Z" fill="#D9D9D9"/>
        <path d="M40.4097 83.7996H37.8574V86.352H40.4097V83.7996Z" fill="#D9D9D9"/>
        <path d="M42.9621 83.7996H40.4097V86.352H42.9621V83.7996Z" fill="#D9D9D9"/>
        <path d="M55.7238 83.7996H53.1715V86.352H55.7238V83.7996Z" fill="#D9D9D9"/>
        <path d="M60.8285 83.7996H58.2762V86.352H60.8285V83.7996Z" fill="#D9D9D9"/>
        <path d="M68.4855 83.7996H65.9332V86.352H68.4855V83.7996Z" fill="#D9D9D9"/>
        <path d="M71.0379 83.7996H68.4855V86.352H71.0379V83.7996Z" fill="#D9D9D9"/>
        <path d="M73.5902 83.7996H71.0379V86.352H73.5902V83.7996Z" fill="#D9D9D9"/>
        <path d="M76.1426 83.7996H73.5902V86.352H76.1426V83.7996Z" fill="#D9D9D9"/>
        <path d="M78.6949 83.7996H76.1426V86.352H78.6949V83.7996Z" fill="#D9D9D9"/>
        <path d="M88.9043 83.7996H86.352V86.352H88.9043V83.7996Z" fill="#D9D9D9"/>
        <path d="M94.009 83.7996H91.4566V86.352H94.009V83.7996Z" fill="#D9D9D9"/>
        <path d="M109.323 83.7996H106.771V86.352H109.323V83.7996Z" fill="#D9D9D9"/>
        <path d="M7.22926 86.352H4.67691V88.9043H7.22926V86.352Z" fill="#D9D9D9"/>
        <path d="M12.3339 86.352H9.7816V88.9043H12.3339V86.352Z" fill="#D9D9D9"/>
        <path d="M19.991 86.352H17.4386V88.9043H19.991V86.352Z" fill="#D9D9D9"/>
        <path d="M22.5433 86.352H19.991V88.9043H22.5433V86.352Z" fill="#D9D9D9"/>
        <path d="M27.648 86.352H25.0957V88.9043H27.648V86.352Z" fill="#D9D9D9"/>
        <path d="M30.2004 86.352H27.648V88.9043H30.2004V86.352Z" fill="#D9D9D9"/>
        <path d="M35.3051 86.352H32.7527V88.9043H35.3051V86.352Z" fill="#D9D9D9"/>
        <path d="M45.5144 86.352H42.9621V88.9043H45.5144V86.352Z" fill="#D9D9D9"/>
        <path d="M48.0668 86.352H45.5144V88.9043H48.0668V86.352Z" fill="#D9D9D9"/>
        <path d="M50.6191 86.352H48.0668V88.9043H50.6191V86.352Z" fill="#D9D9D9"/>
        <path d="M53.1715 86.352H50.6191V88.9043H53.1715V86.352Z" fill="#D9D9D9"/>
        <path d="M63.3809 86.352H60.8285V88.9043H63.3809V86.352Z" fill="#D9D9D9"/>
        <path d="M65.9332 86.352H63.3809V88.9043H65.9332V86.352Z" fill="#D9D9D9"/>
        <path d="M71.0379 86.352H68.4855V88.9043H71.0379V86.352Z" fill="#D9D9D9"/>
        <path d="M73.5902 86.352H71.0379V88.9043H73.5902V86.352Z" fill="#D9D9D9"/>
        <path d="M76.1426 86.352H73.5902V88.9043H76.1426V86.352Z" fill="#D9D9D9"/>
        <path d="M81.2473 86.352H78.6949V88.9043H81.2473V86.352Z" fill="#D9D9D9"/>
        <path d="M83.7996 86.352H81.2473V88.9043H83.7996V86.352Z" fill="#D9D9D9"/>
        <path d="M86.352 86.352H83.7996V88.9043H86.352V86.352Z" fill="#D9D9D9"/>
        <path d="M88.9043 86.352H86.352V88.9043H88.9043V86.352Z" fill="#D9D9D9"/>
        <path d="M91.4566 86.352H88.9043V88.9043H91.4566V86.352Z" fill="#D9D9D9"/>
        <path d="M94.009 86.352H91.4566V88.9043H94.009V86.352Z" fill="#D9D9D9"/>
        <path d="M96.5613 86.352H94.009V88.9043H96.5613V86.352Z" fill="#D9D9D9"/>
        <path d="M99.1137 86.352H96.5613V88.9043H99.1137V86.352Z" fill="#D9D9D9"/>
        <path d="M101.666 86.352H99.1137V88.9043H101.666V86.352Z" fill="#D9D9D9"/>
        <path d="M104.218 86.352H101.666V88.9043H104.218V86.352Z" fill="#D9D9D9"/>
        <path d="M106.771 86.352H104.218V88.9043H106.771V86.352Z" fill="#D9D9D9"/>
        <path d="M109.323 86.352H106.771V88.9043H109.323V86.352Z" fill="#D9D9D9"/>
        <path d="M30.2004 88.9043H27.648V91.4567H30.2004V88.9043Z" fill="#D9D9D9"/>
        <path d="M32.7527 88.9043H30.2004V91.4567H32.7527V88.9043Z" fill="#D9D9D9"/>
        <path d="M35.3051 88.9043H32.7527V91.4567H35.3051V88.9043Z" fill="#D9D9D9"/>
        <path d="M40.4097 88.9043H37.8574V91.4567H40.4097V88.9043Z" fill="#D9D9D9"/>
        <path d="M50.6191 88.9043H48.0668V91.4567H50.6191V88.9043Z" fill="#D9D9D9"/>
        <path d="M55.7238 88.9043H53.1715V91.4567H55.7238V88.9043Z" fill="#D9D9D9"/>
        <path d="M58.2762 88.9043H55.7238V91.4567H58.2762V88.9043Z" fill="#D9D9D9"/>
        <path d="M63.3809 88.9043H60.8285V91.4567H63.3809V88.9043Z" fill="#D9D9D9"/>
        <path d="M65.9332 88.9043H63.3809V91.4567H65.9332V88.9043Z" fill="#D9D9D9"/>
        <path d="M76.1426 88.9043H73.5902V91.4567H76.1426V88.9043Z" fill="#D9D9D9"/>
        <path d="M78.6949 88.9043H76.1426V91.4567H78.6949V88.9043Z" fill="#D9D9D9"/>
        <path d="M83.7996 88.9043H81.2473V91.4567H83.7996V88.9043Z" fill="#D9D9D9"/>
        <path d="M88.9043 88.9043H86.352V91.4567H88.9043V88.9043Z" fill="#D9D9D9"/>
        <path d="M99.1137 88.9043H96.5613V91.4567H99.1137V88.9043Z" fill="#D9D9D9"/>
        <path d="M106.771 88.9043H104.218V91.4567H106.771V88.9043Z" fill="#D9D9D9"/>
        <path d="M7.22926 91.4567H4.67691V94.009H7.22926V91.4567Z" fill="#D9D9D9"/>
        <path d="M9.7816 91.4567H7.22926V94.009H9.7816V91.4567Z" fill="#D9D9D9"/>
        <path d="M12.3339 91.4567H9.7816V94.009H12.3339V91.4567Z" fill="#D9D9D9"/>
        <path d="M14.8863 91.4567H12.3339V94.009H14.8863V91.4567Z" fill="#D9D9D9"/>
        <path d="M17.4386 91.4567H14.8863V94.009H17.4386V91.4567Z" fill="#D9D9D9"/>
        <path d="M19.991 91.4567H17.4386V94.009H19.991V91.4567Z" fill="#D9D9D9"/>
        <path d="M22.5433 91.4567H19.991V94.009H22.5433V91.4567Z" fill="#D9D9D9"/>
        <path d="M27.648 91.4567H25.0957V94.009H27.648V91.4567Z" fill="#D9D9D9"/>
        <path d="M30.2004 91.4567H27.648V94.009H30.2004V91.4567Z" fill="#D9D9D9"/>
        <path d="M32.7527 91.4567H30.2004V94.009H32.7527V91.4567Z" fill="#D9D9D9"/>
        <path d="M40.4097 91.4567H37.8574V94.009H40.4097V91.4567Z" fill="#D9D9D9"/>
        <path d="M42.9621 91.4567H40.4097V94.009H42.9621V91.4567Z" fill="#D9D9D9"/>
        <path d="M45.5144 91.4567H42.9621V94.009H45.5144V91.4567Z" fill="#D9D9D9"/>
        <path d="M58.2762 91.4567H55.7238V94.009H58.2762V91.4567Z" fill="#D9D9D9"/>
        <path d="M60.8285 91.4567H58.2762V94.009H60.8285V91.4567Z" fill="#D9D9D9"/>
        <path d="M63.3809 91.4567H60.8285V94.009H63.3809V91.4567Z" fill="#D9D9D9"/>
        <path d="M71.0379 91.4567H68.4855V94.009H71.0379V91.4567Z" fill="#D9D9D9"/>
        <path d="M73.5902 91.4567H71.0379V94.009H73.5902V91.4567Z" fill="#D9D9D9"/>
        <path d="M76.1426 91.4567H73.5902V94.009H76.1426V91.4567Z" fill="#D9D9D9"/>
        <path d="M83.7996 91.4567H81.2473V94.009H83.7996V91.4567Z" fill="#D9D9D9"/>
        <path d="M86.352 91.4567H83.7996V94.009H86.352V91.4567Z" fill="#D9D9D9"/>
        <path d="M88.9043 91.4567H86.352V94.009H88.9043V91.4567Z" fill="#D9D9D9"/>
        <path d="M94.009 91.4567H91.4566V94.009H94.009V91.4567Z" fill="#D9D9D9"/>
        <path d="M99.1137 91.4567H96.5613V94.009H99.1137V91.4567Z" fill="#D9D9D9"/>
        <path d="M109.323 91.4567H106.771V94.009H109.323V91.4567Z" fill="#D9D9D9"/>
        <path d="M7.22926 94.009H4.67691V96.5613H7.22926V94.009Z" fill="#D9D9D9"/>
        <path d="M22.5433 94.009H19.991V96.5613H22.5433V94.009Z" fill="#D9D9D9"/>
        <path d="M35.3051 94.009H32.7527V96.5613H35.3051V94.009Z" fill="#D9D9D9"/>
        <path d="M45.5144 94.009H42.9621V96.5613H45.5144V94.009Z" fill="#D9D9D9"/>
        <path d="M50.6191 94.009H48.0668V96.5613H50.6191V94.009Z" fill="#D9D9D9"/>
        <path d="M55.7238 94.009H53.1715V96.5613H55.7238V94.009Z" fill="#D9D9D9"/>
        <path d="M60.8285 94.009H58.2762V96.5613H60.8285V94.009Z" fill="#D9D9D9"/>
        <path d="M63.3809 94.009H60.8285V96.5613H63.3809V94.009Z" fill="#D9D9D9"/>
        <path d="M76.1426 94.009H73.5902V96.5613H76.1426V94.009Z" fill="#D9D9D9"/>
        <path d="M81.2473 94.009H78.6949V96.5613H81.2473V94.009Z" fill="#D9D9D9"/>
        <path d="M88.9043 94.009H86.352V96.5613H88.9043V94.009Z" fill="#D9D9D9"/>
        <path d="M99.1137 94.009H96.5613V96.5613H99.1137V94.009Z" fill="#D9D9D9"/>
        <path d="M104.218 94.009H101.666V96.5613H104.218V94.009Z" fill="#D9D9D9"/>
        <path d="M7.22926 96.5613H4.67691V99.1137H7.22926V96.5613Z" fill="#D9D9D9"/>
        <path d="M12.3339 96.5613H9.7816V99.1137H12.3339V96.5613Z" fill="#D9D9D9"/>
        <path d="M14.8863 96.5613H12.3339V99.1137H14.8863V96.5613Z" fill="#D9D9D9"/>
        <path d="M17.4386 96.5613H14.8863V99.1137H17.4386V96.5613Z" fill="#D9D9D9"/>
        <path d="M22.5433 96.5613H19.991V99.1137H22.5433V96.5613Z" fill="#D9D9D9"/>
        <path d="M30.2004 96.5613H27.648V99.1137H30.2004V96.5613Z" fill="#D9D9D9"/>
        <path d="M32.7527 96.5613H30.2004V99.1137H32.7527V96.5613Z" fill="#D9D9D9"/>
        <path d="M45.5144 96.5613H42.9621V99.1137H45.5144V96.5613Z" fill="#D9D9D9"/>
        <path d="M48.0668 96.5613H45.5144V99.1137H48.0668V96.5613Z" fill="#D9D9D9"/>
        <path d="M53.1715 96.5613H50.6191V99.1137H53.1715V96.5613Z" fill="#D9D9D9"/>
        <path d="M58.2762 96.5613H55.7238V99.1137H58.2762V96.5613Z" fill="#D9D9D9"/>
        <path d="M60.8285 96.5613H58.2762V99.1137H60.8285V96.5613Z" fill="#D9D9D9"/>
        <path d="M73.5902 96.5613H71.0379V99.1137H73.5902V96.5613Z" fill="#D9D9D9"/>
        <path d="M78.6949 96.5613H76.1426V99.1137H78.6949V96.5613Z" fill="#D9D9D9"/>
        <path d="M86.352 96.5613H83.7996V99.1137H86.352V96.5613Z" fill="#D9D9D9"/>
        <path d="M88.9043 96.5613H86.352V99.1137H88.9043V96.5613Z" fill="#D9D9D9"/>
        <path d="M91.4566 96.5613H88.9043V99.1137H91.4566V96.5613Z" fill="#D9D9D9"/>
        <path d="M94.009 96.5613H91.4566V99.1137H94.009V96.5613Z" fill="#D9D9D9"/>
        <path d="M96.5613 96.5613H94.009V99.1137H96.5613V96.5613Z" fill="#D9D9D9"/>
        <path d="M99.1137 96.5613H96.5613V99.1137H99.1137V96.5613Z" fill="#D9D9D9"/>
        <path d="M101.666 96.5613H99.1137V99.1137H101.666V96.5613Z" fill="#D9D9D9"/>
        <path d="M106.771 96.5613H104.218V99.1137H106.771V96.5613Z" fill="#D9D9D9"/>
        <path d="M7.22926 99.1137H4.67691V101.666H7.22926V99.1137Z" fill="#D9D9D9"/>
        <path d="M12.3339 99.1137H9.7816V101.666H12.3339V99.1137Z" fill="#D9D9D9"/>
        <path d="M14.8863 99.1137H12.3339V101.666H14.8863V99.1137Z" fill="#D9D9D9"/>
        <path d="M17.4386 99.1137H14.8863V101.666H17.4386V99.1137Z" fill="#D9D9D9"/>
        <path d="M22.5433 99.1137H19.991V101.666H22.5433V99.1137Z" fill="#D9D9D9"/>
        <path d="M27.648 99.1137H25.0957V101.666H27.648V99.1137Z" fill="#D9D9D9"/>
        <path d="M37.8574 99.1137H35.3051V101.666H37.8574V99.1137Z" fill="#D9D9D9"/>
        <path d="M40.4097 99.1137H37.8574V101.666H40.4097V99.1137Z" fill="#D9D9D9"/>
        <path d="M45.5144 99.1137H42.9621V101.666H45.5144V99.1137Z" fill="#D9D9D9"/>
        <path d="M55.7238 99.1137H53.1715V101.666H55.7238V99.1137Z" fill="#D9D9D9"/>
        <path d="M58.2762 99.1137H55.7238V101.666H58.2762V99.1137Z" fill="#D9D9D9"/>
        <path d="M60.8285 99.1137H58.2762V101.666H60.8285V99.1137Z" fill="#D9D9D9"/>
        <path d="M63.3809 99.1137H60.8285V101.666H63.3809V99.1137Z" fill="#D9D9D9"/>
        <path d="M68.4855 99.1137H65.9332V101.666H68.4855V99.1137Z" fill="#D9D9D9"/>
        <path d="M71.0379 99.1137H68.4855V101.666H71.0379V99.1137Z" fill="#D9D9D9"/>
        <path d="M73.5902 99.1137H71.0379V101.666H73.5902V99.1137Z" fill="#D9D9D9"/>
        <path d="M76.1426 99.1137H73.5902V101.666H76.1426V99.1137Z" fill="#D9D9D9"/>
        <path d="M78.6949 99.1137H76.1426V101.666H78.6949V99.1137Z" fill="#D9D9D9"/>
        <path d="M81.2473 99.1137H78.6949V101.666H81.2473V99.1137Z" fill="#D9D9D9"/>
        <path d="M83.7996 99.1137H81.2473V101.666H83.7996V99.1137Z" fill="#D9D9D9"/>
        <path d="M86.352 99.1137H83.7996V101.666H86.352V99.1137Z" fill="#D9D9D9"/>
        <path d="M88.9043 99.1137H86.352V101.666H88.9043V99.1137Z" fill="#D9D9D9"/>
        <path d="M94.009 99.1137H91.4566V101.666H94.009V99.1137Z" fill="#D9D9D9"/>
        <path d="M104.218 99.1137H101.666V101.666H104.218V99.1137Z" fill="#D9D9D9"/>
        <path d="M106.771 99.1137H104.218V101.666H106.771V99.1137Z" fill="#D9D9D9"/>
        <path d="M109.323 99.1137H106.771V101.666H109.323V99.1137Z" fill="#D9D9D9"/>
        <path d="M7.22926 101.666H4.67691V104.218H7.22926V101.666Z" fill="#D9D9D9"/>
        <path d="M12.3339 101.666H9.7816V104.218H12.3339V101.666Z" fill="#D9D9D9"/>
        <path d="M14.8863 101.666H12.3339V104.218H14.8863V101.666Z" fill="#D9D9D9"/>
        <path d="M17.4386 101.666H14.8863V104.218H17.4386V101.666Z" fill="#D9D9D9"/>
        <path d="M22.5433 101.666H19.991V104.218H22.5433V101.666Z" fill="#D9D9D9"/>
        <path d="M30.2004 101.666H27.648V104.218H30.2004V101.666Z" fill="#D9D9D9"/>
        <path d="M32.7527 101.666H30.2004V104.218H32.7527V101.666Z" fill="#D9D9D9"/>
        <path d="M37.8574 101.666H35.3051V104.218H37.8574V101.666Z" fill="#D9D9D9"/>
        <path d="M42.9621 101.666H40.4097V104.218H42.9621V101.666Z" fill="#D9D9D9"/>
        <path d="M55.7238 101.666H53.1715V104.218H55.7238V101.666Z" fill="#D9D9D9"/>
        <path d="M58.2762 101.666H55.7238V104.218H58.2762V101.666Z" fill="#D9D9D9"/>
        <path d="M60.8285 101.666H58.2762V104.218H60.8285V101.666Z" fill="#D9D9D9"/>
        <path d="M68.4855 101.666H65.9332V104.218H68.4855V101.666Z" fill="#D9D9D9"/>
        <path d="M71.0379 101.666H68.4855V104.218H71.0379V101.666Z" fill="#D9D9D9"/>
        <path d="M81.2473 101.666H78.6949V104.218H81.2473V101.666Z" fill="#D9D9D9"/>
        <path d="M86.352 101.666H83.7996V104.218H86.352V101.666Z" fill="#D9D9D9"/>
        <path d="M88.9043 101.666H86.352V104.218H88.9043V101.666Z" fill="#D9D9D9"/>
        <path d="M91.4566 101.666H88.9043V104.218H91.4566V101.666Z" fill="#D9D9D9"/>
        <path d="M94.009 101.666H91.4566V104.218H94.009V101.666Z" fill="#D9D9D9"/>
        <path d="M99.1137 101.666H96.5613V104.218H99.1137V101.666Z" fill="#D9D9D9"/>
        <path d="M101.666 101.666H99.1137V104.218H101.666V101.666Z" fill="#D9D9D9"/>
        <path d="M104.218 101.666H101.666V104.218H104.218V101.666Z" fill="#D9D9D9"/>
        <path d="M7.22926 104.218H4.67691V106.771H7.22926V104.218Z" fill="#D9D9D9"/>
        <path d="M22.5433 104.218H19.991V106.771H22.5433V104.218Z" fill="#D9D9D9"/>
        <path d="M27.648 104.218H25.0957V106.771H27.648V104.218Z" fill="#D9D9D9"/>
        <path d="M30.2004 104.218H27.648V106.771H30.2004V104.218Z" fill="#D9D9D9"/>
        <path d="M32.7527 104.218H30.2004V106.771H32.7527V104.218Z" fill="#D9D9D9"/>
        <path d="M35.3051 104.218H32.7527V106.771H35.3051V104.218Z" fill="#D9D9D9"/>
        <path d="M37.8574 104.218H35.3051V106.771H37.8574V104.218Z" fill="#D9D9D9"/>
        <path d="M40.4097 104.218H37.8574V106.771H40.4097V104.218Z" fill="#D9D9D9"/>
        <path d="M42.9621 104.218H40.4097V106.771H42.9621V104.218Z" fill="#D9D9D9"/>
        <path d="M48.0668 104.218H45.5144V106.771H48.0668V104.218Z" fill="#D9D9D9"/>
        <path d="M53.1715 104.218H50.6191V106.771H53.1715V104.218Z" fill="#D9D9D9"/>
        <path d="M55.7238 104.218H53.1715V106.771H55.7238V104.218Z" fill="#D9D9D9"/>
        <path d="M58.2762 104.218H55.7238V106.771H58.2762V104.218Z" fill="#D9D9D9"/>
        <path d="M60.8285 104.218H58.2762V106.771H60.8285V104.218Z" fill="#D9D9D9"/>
        <path d="M63.3809 104.218H60.8285V106.771H63.3809V104.218Z" fill="#D9D9D9"/>
        <path d="M65.9332 104.218H63.3809V106.771H65.9332V104.218Z" fill="#D9D9D9"/>
        <path d="M73.5902 104.218H71.0379V106.771H73.5902V104.218Z" fill="#D9D9D9"/>
        <path d="M78.6949 104.218H76.1426V106.771H78.6949V104.218Z" fill="#D9D9D9"/>
        <path d="M86.352 104.218H83.7996V106.771H86.352V104.218Z" fill="#D9D9D9"/>
        <path d="M91.4566 104.218H88.9043V106.771H91.4566V104.218Z" fill="#D9D9D9"/>
        <path d="M94.009 104.218H91.4566V106.771H94.009V104.218Z" fill="#D9D9D9"/>
        <path d="M104.218 104.218H101.666V106.771H104.218V104.218Z" fill="#D9D9D9"/>
        <path d="M106.771 104.218H104.218V106.771H106.771V104.218Z" fill="#D9D9D9"/>
        <path d="M109.323 104.218H106.771V106.771H109.323V104.218Z" fill="#D9D9D9"/>
        <path d="M7.22926 106.771H4.67691V109.323H7.22926V106.771Z" fill="#D9D9D9"/>
        <path d="M9.7816 106.771H7.22926V109.323H9.7816V106.771Z" fill="#D9D9D9"/>
        <path d="M12.3339 106.771H9.7816V109.323H12.3339V106.771Z" fill="#D9D9D9"/>
        <path d="M14.8863 106.771H12.3339V109.323H14.8863V106.771Z" fill="#D9D9D9"/>
        <path d="M17.4386 106.771H14.8863V109.323H17.4386V106.771Z" fill="#D9D9D9"/>
        <path d="M19.991 106.771H17.4386V109.323H19.991V106.771Z" fill="#D9D9D9"/>
        <path d="M22.5433 106.771H19.991V109.323H22.5433V106.771Z" fill="#D9D9D9"/>
        <path d="M27.648 106.771H25.0957V109.323H27.648V106.771Z" fill="#D9D9D9"/>
        <path d="M30.2004 106.771H27.648V109.323H30.2004V106.771Z" fill="#D9D9D9"/>
        <path d="M40.4097 106.771H37.8574V109.323H40.4097V106.771Z" fill="#D9D9D9"/>
        <path d="M42.9621 106.771H40.4097V109.323H42.9621V106.771Z" fill="#D9D9D9"/>
        <path d="M58.2762 106.771H55.7238V109.323H58.2762V106.771Z" fill="#D9D9D9"/>
        <path d="M60.8285 106.771H58.2762V109.323H60.8285V106.771Z" fill="#D9D9D9"/>
        <path d="M71.0379 106.771H68.4855V109.323H71.0379V106.771Z" fill="#D9D9D9"/>
        <path d="M73.5902 106.771H71.0379V109.323H73.5902V106.771Z" fill="#D9D9D9"/>
        <path d="M78.6949 106.771H76.1426V109.323H78.6949V106.771Z" fill="#D9D9D9"/>
        <path d="M86.352 106.771H83.7996V109.323H86.352V106.771Z" fill="#D9D9D9"/>
        <path d="M91.4566 106.771H88.9043V109.323H91.4566V106.771Z" fill="#D9D9D9"/>
        <path d="M96.5613 106.771H94.009V109.323H96.5613V106.771Z" fill="#D9D9D9"/>
        <path d="M101.666 106.771H99.1137V109.323H101.666V106.771Z" fill="#D9D9D9"/>
        <path d="M104.218 106.771H101.666V109.323H104.218V106.771Z" fill="#D9D9D9"/>
        <rect x="14" y="14" width="86" height="86" rx="7" fill="#D9D9D9"/>
        <path d="M57.2253 19C36.1058 19 19 36.1058 19 57.2253C19 78.3447 36.1058 95.4505 57.2253 95.4505C78.3447 95.4505 95.4505 78.3447 95.4505 57.2253C95.4505 36.1058 78.3447 19 57.2253 19ZM76.3379 36.0102L83.2185 42.8908L52.4471 73.6621L36.0102 57.2253L42.8908 50.3447L52.4471 59.901L76.3379 36.0102Z"
              fill="white"/>
    </g>
    <defs>
        <clipPath id="clip0_9_971">
            <rect width="114" height="114" fill="white"/>
        </clipPath>
    </defs>
</svg>
