<svg width="20" height="15" viewBox="0 0 20 15" fill="none" xmlns="http://www.w3.org/2000/svg">
    <path d="M10.226 0.422333C4.30153 0.422333 0.789001 7.42937 0.789001 7.42937C0.789001 7.42937 4.30153 14.4364 10.226 14.4364C16.0099 14.4364 19.5225 7.42937 19.5225 7.42937C19.5225 7.42937 16.0099 0.422333 10.226 0.422333ZM10.1557 2.75801C12.755 2.75801 14.8391 4.86012 14.8391 7.42937C14.8391 10.022 12.755 12.1007 10.1557 12.1007C7.57988 12.1007 5.47237 10.022 5.47237 7.42937C5.47237 4.86012 7.57988 2.75801 10.1557 2.75801ZM10.1557 5.09369C8.86781 5.09369 7.81405 6.14475 7.81405 7.42937C7.81405 8.71399 8.86781 9.76505 10.1557 9.76505C11.4437 9.76505 12.4974 8.71399 12.4974 7.42937C12.4974 7.1958 12.4037 6.98559 12.3569 6.77538C12.1696 7.14909 11.7949 7.42937 11.3266 7.42937C10.6709 7.42937 10.1557 6.91552 10.1557 6.26153C10.1557 5.79439 10.4367 5.42068 10.8114 5.23383C10.6007 5.16376 10.3899 5.09369 10.1557 5.09369Z"
          fill="#242423"/>
</svg>
