<?xml version="1.0" encoding="UTF-8" standalone="no"?>
<svg
        viewBox="75 0 337.554 500"
        version="1.1"
        id="svg12"
        sodipodi:docname="howhyold copy.svg"
        inkscape:version="1.2 (dc2aeda, 2022-05-15)"
        xmlns:inkscape="http://www.inkscape.org/namespaces/inkscape"
        xmlns:sodipodi="http://sodipodi.sourceforge.net/DTD/sodipodi-0.dtd"
        xmlns="http://www.w3.org/2000/svg"
        xmlns:bx="https://boxy-svg.com">
    <defs
            id="defs16"/>
    <sodipodi:namedview
            id="namedview14"
            pagecolor="#ffffff"
            bordercolor="#000000"
            borderopacity="0.25"
            inkscape:showpageshadow="2"
            inkscape:pageopacity="0.0"
            inkscape:pagecheckerboard="0"
            inkscape:deskcolor="#d1d1d1"
            showgrid="false"
            inkscape:zoom="0.8947622"
            inkscape:cx="210.6705"
            inkscape:cy="185.52415"
            inkscape:window-width="1529"
            inkscape:window-height="842"
            inkscape:window-x="3747"
            inkscape:window-y="230"
            inkscape:window-maximized="0"
            inkscape:current-layer="svg12"/>
    <path
            fill="#d76eba"
            opacity="1"
            stroke="none"
            d="m 314.472,15.325 c 6.462,3.474 12.926,6.649 19.058,10.372 11.46,6.961 21.793,15.441 31.114,25.06 10.378,10.711 19.205,22.613 26.516,35.668 6.792,12.131 12.063,24.868 15.551,38.283 1.921,7.39 3.058,14.993 4.378,22.531 1.799,10.268 1.646,20.674 1.094,30.994 -0.451,8.444 -1.699,16.894 -3.243,25.22 -2.72,14.676 -7.71,28.671 -14.651,41.863 -3.911,7.432 -8.469,14.541 -13.018,21.612 -4.22,6.558 -8.82,12.87 -13.248,19.294 -10.064,14.598 -20.018,29.275 -30.226,43.775 -7.338,10.426 -13.585,21.359 -17.275,33.627 -1.539,5.113 -2.667,10.276 -2.885,15.688 -0.348,8.691 -4.407,15.729 -10.938,21.294 -9.064,7.723 -19.716,10.876 -31.509,10.827 -22.491,-0.092 -45.001,0.484 -67.468,-0.276 -13.705,-0.463 -25.595,-6.154 -33.551,-18.137 -2.897,-4.363 -4.405,-9.228 -4.497,-14.505 -0.128,-7.306 -2.441,-14.104 -4.859,-20.881 -3.935,-11.029 -10.349,-20.638 -16.975,-30.155 -7.783,-11.183 -15.366,-22.506 -23.094,-33.727 -6.91,-10.034 -13.987,-19.956 -20.831,-30.034 C 95.136,250.789 88.324,236.887 83.405,222.015 79.798,211.111 77.043,199.998 76.016,188.616 75.088,178.33 74.738,167.91 75.209,157.6 c 0.589,-12.86 3.05,-25.533 6.84,-37.878 3.936,-12.823 9.294,-25.028 16.071,-36.615 7.166,-12.245 15.782,-23.375 25.744,-33.428 8.066,-8.139 16.857,-15.447 26.442,-21.762 13.153,-8.665 27.179,-15.457 42.216,-20.22 11.776,-3.733 23.76,-6.407 36.067,-7.128 9.287,-0.546 18.648,-0.803 27.927,-0.295 11.184,0.613 22.212,2.68 33.022,5.826 8.491,2.472 16.797,5.377 24.934,9.225"
            bx:origin="0.500023 0.60745"
            id="path2"
            sodipodi:nodetypes="ccccccccccccccccccccccccccccccccccc"/>
    <path
            fill="#D86EBA"
            opacity="1.000000"
            stroke="none"
            d="M 283.16 441.448 C 253.124 441.448 223.294 441.461 193.463 441.432 C 189.433 441.428 185.746 440.403 183.064 437.062 C 179.993 433.237 179.755 428.934 181.58 424.673 C 183.444 420.322 187.127 418.131 191.867 418.097 C 201.536 418.026 211.205 418.076 220.875 418.076 C 245.631 418.076 270.388 418.073 295.143 418.078 C 302.014 418.08 307.197 423.252 306.942 430.101 C 306.71 436.352 301.967 441.174 294.68 441.423 C 290.912 441.55 287.138 441.447 283.16 441.448 Z"
            style=""
            bx:origin="0.500756 -7.173694"
            id="path4"/>
    <path
            fill="#D86EBA"
            opacity="1.000000"
            stroke="none"
            d="M 265.056 448.166 C 275.204 448.166 285.149 448.151 295.092 448.171 C 302.254 448.185 307.526 453.652 306.914 460.763 C 306.401 466.724 301.775 471.518 294.125 471.532 C 279.176 471.56 264.226 471.542 249.276 471.542 C 230.624 471.542 211.971 471.566 193.317 471.52 C 189.364 471.51 185.753 470.461 183.104 467.201 C 180.004 463.387 179.719 459.067 181.568 454.825 C 183.47 450.464 187.16 448.181 192.022 448.173 C 206.902 448.153 221.783 448.166 236.664 448.166 C 246.059 448.166 255.454 448.166 265.056 448.166 Z"
            style=""
            bx:origin="0.500758 -8.472812"
            id="path6"/>
    <path
            fill="#D86EBA"
            opacity="1.000000"
            stroke="none"
            d="M 250.654 499.971 C 237.143 499.97 223.841 500.01 210.537 499.952 C 203.512 499.921 198.281 494.63 198.491 487.88 C 198.683 481.693 204.377 476.801 209.577 476.841 C 232.343 477.01 255.112 476.997 277.878 476.859 C 284.169 476.82 289.612 483.359 288.676 489.76 C 287.776 495.929 282.454 500.074 276.575 499.999 C 268.005 499.889 259.432 499.971 250.654 499.971 Z"
            style=""
            bx:origin="0.501684 -9.79497"
            id="path8"/>
</svg>
