<?xml version="1.0" encoding="UTF-8"?>
<svg id="Ebene_1" data-name="Ebene 1" xmlns="http://www.w3.org/2000/svg" viewBox="0 0 1301.99 695.37">
  <defs>
    <style>
      .cls-1 {
        fill: #fff;
      }

      .cls-1, .cls-2, .cls-3 {
        stroke-miterlimit: 10;
      }

      .cls-1, .cls-2, .cls-3, .cls-4 {
        stroke-width: 28.38px;
      }

      .cls-1, .cls-3 {
        stroke: #000;
      }

      .cls-2, .cls-3, .cls-4 {
        fill: none;
      }

      .cls-2, .cls-4 {
        stroke: #f6c;
        stroke-linecap: round;
      }

      .cls-4 {
        stroke-linejoin: round;
      }
    </style>
  </defs>
  <line class="cls-1" x1="170.29" y1="140.62" x2="170.29" y2="381.86"/>
  <line class="cls-1" x1="294.46" y1="140.62" x2="294.46" y2="381.86"/>
  <line class="cls-1" x1="170.29" y1="223.53" x2="294.46" y2="223.53"/>
  <line class="cls-1" x1="963.19" y1="140.62" x2="963.19" y2="381.86"/>
  <line class="cls-1" x1="1087.36" y1="140.62" x2="1087.36" y2="381.86"/>
  <line class="cls-1" x1="963.19" y1="223.53" x2="1087.36" y2="223.53"/>
  <circle class="cls-3" cx="475.39" cy="264.33" r="111.75"/>
  <path class="cls-3" d="m890.46,148.88v173.68s1.47,53.52-58.84,53.52h-1.47c-60.31,0-60.31-53.52-60.31-53.52"/>
  <path class="cls-3" d="m649.22,148.88v170.29l.03,3.4s-1.48,53.52,58.83,53.52h1.47c60.31,0,60.28-53.52,60.28-53.52v-173.68"/>
  <path class="cls-3" d="m1287.8,141.94v41.35c0,16.31-4.71,32.44-14.33,45.61-9.99,13.69-26.47,26.57-53.08,26.57h-3.55c-26.61,0-43.08-12.88-53.08-26.57-9.62-13.17-14.33-29.3-14.33-45.61v-41.35"/>
  <line class="cls-3" x1="1218.62" y1="381.76" x2="1218.62" y2="255.46"/>
  <line class="cls-4" x1="173.84" y1="681.18" x2="287.29" y2="681.18"/>
  <line class="cls-4" x1="143.61" y1="638.61" x2="317.52" y2="638.61"/>
  <line class="cls-4" x1="143.61" y1="596.04" x2="317.52" y2="596.04"/>
  <path class="cls-2" d="m397.34,95.82S370.73,15.99,248.34,14.22c-99.32-1.44-165.41,49.04-196.23,97.73C26.74,152.03,14.19,198.89,14.19,246.32v9.14c0,46.12,24.83,81.6,24.83,81.6,0,0,97.56,128.55,101.11,146.29,3.55,17.74,3.69,69.28,39.1,69.28h108.06c35.4,0,35.55-51.54,39.1-69.28,3.55-17.74,53.22-74.5,53.22-74.5"/>
</svg>