<?xml version="1.0" encoding="UTF-8" standalone="no"?>
<svg
        viewBox="75 0 337.554 500"
        version="1.1"
        id="svg12"
        sodipodi:docname="howhy_whitebackgorund.svg"
        xml:space="preserve"
        inkscape:version="1.2 (dc2aeda, 2022-05-15)"
        inkscape:export-filename="howhy_whitebackgorund.png"
        inkscape:export-xdpi="96"
        inkscape:export-ydpi="96"
        xmlns:inkscape="http://www.inkscape.org/namespaces/inkscape"
        xmlns:sodipodi="http://sodipodi.sourceforge.net/DTD/sodipodi-0.dtd"
        xmlns="http://www.w3.org/2000/svg"
        xmlns:bx="https://boxy-svg.com"><defs
     id="defs16" />
    <sodipodi:namedview
            id="namedview14"
            pagecolor="#ffffff"
            bordercolor="#000000"
            borderopacity="0.25"
            inkscape:showpageshadow="2"
            inkscape:pageopacity="0.0"
            inkscape:pagecheckerboard="0"
            inkscape:deskcolor="#d1d1d1"
            showgrid="false"
            inkscape:zoom="1.4996742"
            inkscape:cx="38.675067"
            inkscape:cy="349.74263"
            inkscape:window-width="2560"
            inkscape:window-height="1387"
            inkscape:window-x="3360"
            inkscape:window-y="25"
            inkscape:window-maximized="1"
            inkscape:current-layer="svg12"/>
    <path
            fill="#d76eba"
            opacity="1"
            stroke="none"
            d="m 314.472,15.325 c 6.462,3.474 12.926,6.649 19.058,10.372 11.46,6.961 21.793,15.441 31.114,25.06 10.378,10.711 19.205,22.613 26.516,35.668 6.792,12.131 12.063,24.868 15.551,38.283 1.921,7.39 3.058,14.993 4.378,22.531 1.799,10.268 1.646,20.674 1.094,30.994 -0.451,8.444 -1.699,16.894 -3.243,25.22 -2.72,14.676 -7.71,28.671 -14.651,41.863 -3.911,7.432 -8.469,14.541 -13.018,21.612 -4.22,6.558 -8.82,12.87 -13.248,19.294 -10.064,14.598 -20.018,29.275 -30.226,43.775 -7.338,10.426 -13.585,21.359 -17.275,33.627 -1.539,5.113 -2.667,10.276 -2.885,15.688 -0.348,8.691 -4.407,15.729 -10.938,21.294 -9.064,7.723 -19.716,10.876 -31.509,10.827 -22.491,-0.092 -45.001,0.484 -67.468,-0.276 -13.705,-0.463 -25.595,-6.154 -33.551,-18.137 -2.897,-4.363 -4.405,-9.228 -4.497,-14.505 -0.128,-7.306 -2.441,-14.104 -4.859,-20.881 -3.935,-11.029 -10.349,-20.638 -16.975,-30.155 -7.783,-11.183 -15.366,-22.506 -23.094,-33.727 -6.91,-10.034 -13.987,-19.956 -20.831,-30.034 C 95.136,250.789 88.324,236.887 83.405,222.015 79.798,211.111 77.043,199.998 76.016,188.616 75.088,178.33 74.738,167.91 75.209,157.6 c 0.589,-12.86 3.05,-25.533 6.84,-37.878 3.936,-12.823 9.294,-25.028 16.071,-36.615 7.166,-12.245 15.782,-23.375 25.744,-33.428 8.066,-8.139 16.857,-15.447 26.442,-21.762 13.153,-8.665 27.179,-15.457 42.216,-20.22 11.776,-3.733 23.76,-6.407 36.067,-7.128 9.287,-0.546 18.648,-0.803 27.927,-0.295 11.184,0.613 22.212,2.68 33.022,5.826 8.491,2.472 16.797,5.377 24.934,9.225"
            bx:origin="0.500023 0.60745"
            id="path2"
            sodipodi:nodetypes="ccccccccccccccccccccccccccccccccccc"
            style="display:inline;fill:#ffffff;fill-opacity:1"/>
    <path
            fill="#d76eba"
            opacity="1"
            stroke="none"
            d="m 314.32927,15.324869 c 6.45816,3.474 12.91831,6.649 19.04666,10.372 11.45318,6.961 21.78003,15.441 31.09549,25.06 10.37182,10.711 19.19356,22.613 26.50022,35.668 6.78796,12.131 12.05582,24.868001 15.54174,38.283001 1.91986,7.39 3.05618,14.993 4.3754,22.531 1.79792,10.268 1.64502,20.674 1.09334,30.994 -0.45073,8.444 -1.69798,16.894 -3.24106,25.22 -2.71839,14.676 -7.70542,28.671 -14.64228,41.863 -3.90868,7.432 -8.46396,14.541 -13.01026,21.612 -4.21748,6.558 -8.81476,12.87 -13.24012,19.294 -10.058,14.598 -20.00608,29.275 -30.20801,43.775 -7.33363,10.426 -13.57691,21.359 -17.26472,33.627 -1.53808,5.113 -2.66541,10.276 -2.88328,15.688 -0.34779,8.691 -4.40438,15.729 -10.93149,21.294 -9.05861,7.723 -19.70427,10.876 -31.49025,10.827 -22.47762,-0.092 -44.97422,0.484 -67.42785,-0.276 -13.69684,-0.463 -25.57976,-6.154 -33.53103,-18.137 -2.89527,-4.363 -4.40238,-9.228 -4.49432,-14.505 -0.12793,-7.306 -2.43955,-14.104 -4.85611,-20.881 -3.93266,-11.029 -10.34284,-20.638 -16.9649,-30.155 -7.77837,-11.183 -15.35685,-22.506 -23.08025,-33.727 -6.90589,-10.034 -13.97868,-19.956 -20.81861,-30.034 -8.773772,-12.929 -15.581718,-26.831 -20.497791,-41.703 -3.604853,-10.904 -6.358214,-22.017 -7.384602,-33.399 -0.927448,-10.286 -1.27724,-20.706 -0.80652,-31.016 0.58865,-12.86 3.048184,-25.533 6.835929,-37.878 3.933658,-12.823 9.288469,-25.028001 16.061436,-36.615001 7.161738,-12.245 15.772608,-23.375 25.728678,-33.428 8.0612,-8.139 16.84697,-15.447 26.42626,-21.762 13.14518,-8.665 27.16283,-15.457 42.19088,-20.22 11.76899,-3.733 23.74586,-6.407 36.04554,-7.12800001 9.28147,-0.546 18.6369,-0.803 27.91038,-0.295 11.17734,0.613 22.19878,2.68000001 33.00234,5.82600001 8.48595,2.472 16.787,5.377 24.91916,9.225 m 74.03092,168.793001 c 0.89547,-8.538 1.05737,-17.075 0.42575,-25.653 -0.74156,-10.077 -2.42056,-19.972 -5.18492,-29.666 -4.00162,-14.046 -9.98006,-27.228 -17.9643,-39.454001 -6.26926,-9.601 -13.35304,-18.575 -21.96292,-26.182 -5.73059,-5.063 -11.57811,-10.058 -17.78341,-14.509 -12.02684,-8.623 -25.32592,-14.801 -39.43952,-19.222 -10.87452,-3.405 -22.02388,-5.496 -33.36512,-6.153 -17.96031,-1.038 -35.65877,0.834 -52.87152,6.25 -11.64007,3.662 -22.6715,8.732 -33.05832,15.18 -12.30067,7.634 -23.1762,16.938 -32.75149,27.808 -13.1072,14.879 -22.71448,31.755001 -29.02972,50.548001 -4.26046,12.672 -6.605063,25.723 -7.245681,39.039 -0.704582,14.661 0.893468,29.119 4.570281,43.36 3.21808,12.465 7.81334,24.377 14.45839,35.37 5.04499,8.346 10.69663,16.327 16.14838,24.424 4.62725,6.873 9.34044,13.685 14.03564,20.508 6.32324,9.192 12.62648,18.4 19.01268,27.547 7.44857,10.669 14.6093,21.49 19.22655,33.777 3.59686,9.575 6.8829,19.214 7.0618,29.612 0.047,2.701 1.3362,4.769 3.44794,6.454 4.41937,3.523 9.54732,5.064 15.04404,5.088 21.85999,0.097 43.71997,0.084 65.58095,0.008 5.10596,-0.018 9.84314,-1.61 13.97868,-4.67 1.95484,-1.446 3.74177,-3.298 3.75476,-5.87 0.036,-7.221 1.672,-14.105 3.76876,-20.94 3.27105,-10.668 7.58648,-20.909 13.79178,-30.156 12.85335,-19.151 26.05749,-38.067 39.08073,-57.103 2.25966,-3.304 4.11655,-6.906 6.5521,-10.068 5.90148,-7.657 11.21032,-15.664 15.60172,-24.284 5.1799,-10.164 9.23848,-20.762 11.78298,-31.879 1.41716,-6.189 2.23066,-12.516 3.33301,-19.164 z"
            bx:origin="0.500023 0.60745"
            id="path1027-3"
            style="display:inline;stroke-width:0.999702"/>
    <path
            fill="#D86EBA"
            opacity="1.000000"
            stroke="none"
            d="M 283.16 441.448 C 253.124 441.448 223.294 441.461 193.463 441.432 C 189.433 441.428 185.746 440.403 183.064 437.062 C 179.993 433.237 179.755 428.934 181.58 424.673 C 183.444 420.322 187.127 418.131 191.867 418.097 C 201.536 418.026 211.205 418.076 220.875 418.076 C 245.631 418.076 270.388 418.073 295.143 418.078 C 302.014 418.08 307.197 423.252 306.942 430.101 C 306.71 436.352 301.967 441.174 294.68 441.423 C 290.912 441.55 287.138 441.447 283.16 441.448 Z"
            bx:origin="0.500756 -7.173694"
            id="path4"
            style=""/>
    <path
            fill="#D86EBA"
            opacity="1.000000"
            stroke="none"
            d="M 265.056 448.166 C 275.204 448.166 285.149 448.151 295.092 448.171 C 302.254 448.185 307.526 453.652 306.914 460.763 C 306.401 466.724 301.775 471.518 294.125 471.532 C 279.176 471.56 264.226 471.542 249.276 471.542 C 230.624 471.542 211.971 471.566 193.317 471.52 C 189.364 471.51 185.753 470.461 183.104 467.201 C 180.004 463.387 179.719 459.067 181.568 454.825 C 183.47 450.464 187.16 448.181 192.022 448.173 C 206.902 448.153 221.783 448.166 236.664 448.166 C 246.059 448.166 255.454 448.166 265.056 448.166 Z"
            style=""
            bx:origin="0.500758 -8.472812"
            id="path6"/>
    <path
            fill="#D86EBA"
            opacity="1.000000"
            stroke="none"
            d="M 250.654 499.971 C 237.143 499.97 223.841 500.01 210.537 499.952 C 203.512 499.921 198.281 494.63 198.491 487.88 C 198.683 481.693 204.377 476.801 209.577 476.841 C 232.343 477.01 255.112 476.997 277.878 476.859 C 284.169 476.82 289.612 483.359 288.676 489.76 C 287.776 495.929 282.454 500.074 276.575 499.999 C 268.005 499.889 259.432 499.971 250.654 499.971 Z"
            style=""
            bx:origin="0.501684 -9.79497"
            id="path8"/>
    <path
            fill="#030303"
            opacity="1.000000"
            stroke="none"
            d="M 276.732 215.635 C 276.732 203.545 276.733 191.66 276.731 179.778 C 276.73 176.99 276.726 176.987 273.858 176.987 C 253.628 176.987 233.397 176.987 213.167 176.987 C 209.991 176.987 209.99 176.989 209.99 180.083 C 209.989 213.122 209.989 246.161 209.989 279.202 C 209.989 279.949 209.989 280.699 209.989 281.628 C 202.251 281.628 194.62 281.628 186.857 281.628 C 186.857 223.665 186.857 165.66 186.857 107.517 C 194.515 107.517 202.141 107.517 209.983 107.517 C 209.983 123.667 209.983 139.702 209.983 155.85 C 232.307 155.85 254.417 155.85 276.687 155.85 C 276.687 139.719 276.687 123.737 276.687 107.568 C 284.474 107.568 292.1 107.568 299.866 107.568 C 299.866 165.566 299.866 223.564 299.866 281.687 C 292.243 281.687 284.659 281.687 276.732 281.687 C 276.732 259.726 276.732 237.784 276.732 215.635 Z"
            bx:origin="0.503754 0.818068"
            id="path10"
            style=""/></svg>
