<svg width="265" height="191" viewBox="0 0 265 191" fill="none" xmlns="http://www.w3.org/2000/svg">
<path d="M251.338 51.1981C251.338 53.227 253.36 51.9669 253.643 53.1795C255.915 62.9426 254.771 74.0178 254.771 83.92C254.771 100.126 253.762 116.555 251.891 132.651C250.711 142.801 250.282 154.377 246.909 164.111C243.549 173.806 235.852 176.9 226.544 178C213.049 179.594 199.869 182.53 186.42 184.469C159.886 188.294 134.164 190.559 107.396 186.358C87.8312 183.287 68.2713 185.247 48.6388 185.247C41.6697 185.247 31.7691 188.907 28.3671 181.062C25.0635 173.444 24.0836 164.83 20.5636 157.379C14.2144 143.941 12.1034 131.161 11.9832 116.083C11.9143 107.444 11.7486 100.05 9.76286 91.6877" stroke="#242423" stroke-width="3" stroke-linecap="round" stroke-linejoin="round"/>
<path d="M255.18 56.0457C255.844 57.0499 255.999 54.9273 255.999 54.7005C255.999 51.3002 254.791 49.3519 252.929 46.5721C246.63 37.1665 239.694 35.7752 228.843 36.2518C220.34 36.6252 211.766 34.8969 203.214 34.7363C193.113 34.5467 182.801 35.0903 172.818 33.4726C133.738 27.1394 95.8849 36.1236 57.1141 38.912" stroke="#242423" stroke-width="3" stroke-linecap="round" stroke-linejoin="round"/>
<path d="M148.778 137.228C149.274 144.262 172.133 121.748 173.695 118.544C184.675 96.0145 173.219 69.2465 150.398 59.7392C140.66 55.6825 130.103 58.7342 121.156 63.3276C113.638 67.187 102.387 74.3164 99.1578 82.5453C95.5628 91.7071 100.044 103.169 101.09 112.439C102.266 122.85 102.922 128.39 114.292 128.39" stroke="#242423" stroke-width="3" stroke-linecap="round" stroke-linejoin="round"/>
<path d="M152.053 136.664C151.437 130.49 147.791 160.07 151.729 155.276C153.673 152.909 153.691 143.238 153.691 146.301C153.691 148.473 152.84 155.138 154.352 156.661" stroke="#242423" stroke-width="3" stroke-linecap="round" stroke-linejoin="round"/>
<path d="M114.292 128.886C121.909 128.886 120.596 132.834 118.638 140.336C113.518 159.952 119.378 125.424 119.378 143.382" stroke="#242423" stroke-width="3" stroke-linecap="round" stroke-linejoin="round"/>
<path d="M153.124 160.426C153.331 162.74 159.715 161.695 161.082 162.477C170.503 167.869 185.244 171.315 196.115 171.315C202.22 171.315 171.978 174.516 178.083 174.516C181.045 174.516 193.029 173.199 194.387 176.487C195.655 179.562 190.7 182.66 188.917 184.751" stroke="#242423" stroke-width="3" stroke-linecap="round" stroke-linejoin="round"/>
<path d="M115.772 149.852C115.519 152.206 100.924 151.814 99.5079 151.814C96.6956 151.814 88.2587 151.814 91.071 151.814C93.1239 151.814 95.6456 152.106 97.5457 152.911C102.133 154.855 94.3777 157 93.0018 157.442C89.4835 158.573 80.3567 164.953 83.1599 162.545" stroke="#242423" stroke-width="3" stroke-linecap="round" stroke-linejoin="round"/>
<path d="M89.065 180.265C90.5709 180.928 84.298 178.382 81.8703 175.701C75.553 168.724 70.601 161.033 65.0639 153.419C61.8933 149.06 61.0073 145.727 60.4692 140.474C59.4761 130.78 54.9821 124.001 51.5258 115.274C50.1306 111.752 44.171 111.015 41.2255 112.902C35.2643 116.721 37.7081 124.476 38.643 130.442C40.6287 143.113 46.7274 154.277 48.7998 166.738C49.3688 170.159 49.0695 173.474 51.1032 176.408C53.5657 179.961 58.4326 182.905 59.9802 186.893" stroke="#242423" stroke-width="3" stroke-linecap="round" stroke-linejoin="round"/>
<path d="M88.3248 164.033C86.6131 167.453 82.3378 166.15 79.8057 170.007" stroke="#242423" stroke-width="3" stroke-linecap="round" stroke-linejoin="round"/>
<path d="M48.5952 109.385C48.5952 118.815 48.1839 72.1974 45.5683 81.2575C45.0069 83.2021 43.0225 91.2051 42.2929 91.033C40.3177 90.5671 38.5941 90.7935 37.1655 92.3005C35.7379 93.8064 39.0053 94.5567 39.0053 96.5476C39.0053 97.6876 34.9425 102.521 36.5654 102.865C38.6191 103.301 40.3954 103.595 42.0445 105.054C42.839 105.757 43.6671 108.464 44.0916 107.492" stroke="#242423" stroke-width="3" stroke-linecap="round" stroke-linejoin="round"/>
<path d="M30.5806 67.9941C46.4914 67.9941 17.0539 77.8051 17.0539 68.242C17.0539 65.9335 49.3483 71.201 26.4863 73.9909" stroke="#FF62D5" stroke-width="3" stroke-linecap="round" stroke-linejoin="round"/>
<path d="M30.5804 78.6573C37.2095 79.8222 21.3102 80.7595 18.708 78.532C15.0427 75.3945 41.505 77.2422 28.5333 78.9052" stroke="#FF62D5" stroke-width="3" stroke-linecap="round" stroke-linejoin="round"/>
<path d="M29.7618 84.3837C38.153 84.3837 28.4478 87.1747 24.7665 85.9844C18.374 83.9175 23.2507 81.2654 25.4156 82.9184" stroke="#FF62D5" stroke-width="3" stroke-linecap="round" stroke-linejoin="round"/>
<path d="M33.6643 59.0694C35.1451 59.0694 33.6813 47.2193 34.5741 45.2948C36.1084 41.988 41.424 42.0321 43.4852 37.4268C47.7485 27.9017 51.5099 12.8502 42.5614 4.50463C36.2994 -1.33544 24.2127 2.75173 17.9453 6.32821C12.3453 9.52376 10.1495 14.6533 7.25652 20.0915C5.8882 22.6637 2.53246 25.5658 2.45367 28.6421C2.32347 33.7259 7.17428 39.9134 12.6018 40.042C16.4775 40.1338 15.4508 47.0021 15.179 49.7837C14.7786 53.8825 16.5583 56.377 17.1299 60.1967" stroke="#FF62D5" stroke-width="3" stroke-linecap="round" stroke-linejoin="round"/>
<path d="M245.937 14.9021C246.063 13.6434 255.664 14.155 256.19 14.1581C263.592 14.2017 263.976 22.1313 262.806 27.7498C259.525 43.5028 254.271 61.3141 245.197 74.7121C242.144 79.2195 240.378 75.3095 238.903 71.7113C235.03 62.2585 236.792 50.4697 237.593 40.6301C238.315 31.761 241.337 23.7745 243.451 15.2052C244.803 9.72453 248.641 15.4516 249.118 18.3513" stroke="#FF62D5" stroke-width="3" stroke-linecap="round" stroke-linejoin="round"/>
<path d="M234.048 95.8587C234.232 93.8027 236.268 97.2811 236.268 98.4213C236.268 101.993 231.437 104.432 229.893 100.398C228.023 95.5108 229.747 82.4223 236.839 82.4223C241.144 82.4223 237.334 95.4091 236.268 97.5045" stroke="#FF62D5" stroke-width="3" stroke-linecap="round" stroke-linejoin="round"/>
</svg>
