<svg width="161" height="198" viewBox="0 0 161 198" fill="none" xmlns="http://www.w3.org/2000/svg">
    <path fill-rule="evenodd" clip-rule="evenodd"
          d="M72.5 106C121.377 106 161 66.3772 161 17.5C161 11.509 160.405 5.65701 159.27 0H16C7.16344 0 0 7.16344 0 16V68.2675C16.007 91.0845 42.5117 106 72.5 106Z"
          fill="white"/>
    <g clip-path="url(#clip0_299_441)">
        <path d="M93.381 187.41H72.5251H51.3265C48.4488 187.41 45.9936 189.647 45.8961 192.525C45.7956 195.533 48.2036 198 51.1876 198H93.5169C96.501 198 98.9089 195.53 98.8085 192.525C98.711 189.65 96.2558 187.41 93.3781 187.41H93.381Z"
              fill="white"/>
        <path d="M104.661 171.525H72.5281H40.0521C37.1744 171.525 34.7192 173.761 34.6217 176.639C34.5212 179.647 36.9292 182.115 39.9132 182.115H104.803C107.787 182.115 110.195 179.645 110.095 176.639C109.997 173.764 107.542 171.525 104.664 171.525H104.661Z"
              fill="white"/>
        <path d="M104.661 155.64H72.5281H40.0521C37.1744 155.64 34.7192 157.876 34.6217 160.754C34.5212 163.762 36.9292 166.23 39.9132 166.23H104.803C107.787 166.23 110.195 163.759 110.095 160.754C109.997 157.879 107.542 155.64 104.664 155.64H104.661Z"
              fill="white"/>
        <path d="M119.995 100.213C118.288 100.142 116.583 100.071 114.875 100.003C113.797 99.9586 112.771 100.476 112.16 101.368C102.945 114.833 102.466 117.227 102.18 118.657C101.937 119.871 101.751 121.293 101.535 122.938C100.103 133.904 98.2087 140.251 92.7812 140.251H52.2128C46.7854 140.251 44.8945 133.904 43.4586 122.938C43.2429 121.293 43.0568 119.871 42.8145 118.657C42.5279 117.227 42.0493 114.836 32.8342 101.368C32.2255 100.476 31.2003 99.9586 30.1219 100C28.4172 100.068 26.7095 100.139 25.0018 100.21C22.5377 100.316 21.1579 103.097 22.5613 105.124C29.7585 115.516 31.7469 119.221 32.2935 120.447C32.3969 120.681 32.4708 120.923 32.5151 121.174C32.6599 122.002 32.8017 123.086 32.9612 124.309C33.5344 128.686 34.3173 134.678 36.6012 139.828C40.64 148.929 47.3201 150.841 52.2128 150.841H92.7871C97.6798 150.841 104.36 148.929 108.399 139.828C110.683 134.678 111.469 128.686 112.039 124.309C112.198 123.086 112.34 122.002 112.485 121.174C112.529 120.923 112.603 120.681 112.706 120.447C113.253 119.221 115.241 115.516 122.439 105.124C123.842 103.097 122.462 100.316 119.998 100.213H119.995Z"
              fill="white"/>
    </g>
    <defs>
        <clipPath id="clip0_299_441">
            <rect width="101" height="98" fill="white" transform="translate(22 100)"/>
        </clipPath>
    </defs>
</svg>
