<svg width="292" height="292" viewBox="0 0 292 292" fill="none" xmlns="http://www.w3.org/2000/svg">
    <circle cx="146" cy="146" r="135.5" fill="#242423" stroke="#242423" stroke-width="21"/>
    <path d="M144.404 80C118.061 80 96.5088 106.88 96.5088 140C96.5088 173.12 118.061 200 144.404 200C170.746 200 192.298 173.12 192.298 140C192.298 106.88 170.746 80 144.404 80ZM94.3535 200C68.9693 201.2 55 217.28 55 243.2L96.5088 272H189.105L237 240C237 214.08 220.077 201.2 194.454 200C181.522 214.64 163.801 224 144.404 224C125.006 224 107.285 214.64 94.3535 200Z"
          fill="white"/>
    <circle cx="146" cy="146" r="135.5" stroke="#242423" stroke-width="21"/>
    <circle cx="250" cy="257" r="18.5" fill="white" stroke="white"/>
    <path d="M247.5 247V254.5H240V259.5H247.5V267H252.5V259.5H260V254.5H252.5V247H247.5Z" fill="#242423"/>
</svg>
