<?xml version="1.0" encoding="utf-8"?>
<svg viewBox="75 0 337.554 500" xmlns="http://www.w3.org/2000/svg" xmlns:bx="https://boxy-svg.com">
  <path fill="#D76EBA" opacity="1.000000" stroke="none" d="M 314.472 15.325 C 320.934 18.799 327.398 21.974 333.53 25.697 C 344.99 32.658 355.323 41.138 364.644 50.757 C 375.022 61.468 383.849 73.37 391.16 86.425 C 397.952 98.556 403.223 111.293 406.711 124.708 C 408.632 132.098 409.769 139.701 411.089 147.239 C 412.888 157.507 412.735 167.913 412.183 178.233 C 411.732 186.677 410.484 195.127 408.94 203.453 C 406.22 218.129 401.23 232.124 394.289 245.316 C 390.378 252.748 385.82 259.857 381.271 266.928 C 377.051 273.486 372.451 279.798 368.023 286.222 C 357.959 300.82 348.005 315.497 337.797 329.997 C 330.459 340.423 324.212 351.356 320.522 363.624 C 318.983 368.737 317.855 373.9 317.637 379.312 C 317.289 388.003 313.23 395.041 306.699 400.606 C 297.635 408.329 286.983 411.482 275.19 411.433 C 252.699 411.341 230.189 411.917 207.722 411.157 C 194.017 410.694 182.127 405.003 174.171 393.02 C 171.274 388.657 169.766 383.792 169.674 378.515 C 169.546 371.209 167.233 364.411 164.815 357.634 C 160.88 346.605 154.466 336.996 147.84 327.479 C 140.057 316.296 132.474 304.973 124.746 293.752 C 117.836 283.718 110.759 273.796 103.915 263.718 C 95.136 250.789 88.324 236.887 83.405 222.015 C 79.798 211.111 77.043 199.998 76.016 188.616 C 75.088 178.33 74.738 167.91 75.209 157.6 C 75.798 144.74 78.259 132.067 82.049 119.722 C 85.985 106.899 91.343 94.694 98.12 83.107 C 105.286 70.862 113.902 59.732 123.864 49.679 C 131.93 41.54 140.721 34.232 150.306 27.917 C 163.459 19.252 177.485 12.46 192.522 7.697 C 204.298 3.964 216.282 1.29 228.589 0.569 C 237.876 0.023 247.237 -0.234 256.516 0.274 C 267.7 0.887 278.728 2.954 289.538 6.1 C 298.029 8.572 306.335 11.477 314.472 15.325 M 388.547 184.118 C 389.443 175.58 389.605 167.043 388.973 158.465 C 388.231 148.388 386.551 138.493 383.785 128.799 C 379.781 114.753 373.799 101.571 365.81 89.345 C 359.537 79.744 352.449 70.77 343.834 63.163 C 338.1 58.1 332.249 53.105 326.04 48.654 C 314.006 40.031 300.699 33.853 286.577 29.432 C 275.696 26.027 264.54 23.936 253.192 23.279 C 235.221 22.241 217.512 24.113 200.289 29.529 C 188.642 33.191 177.604 38.261 167.211 44.709 C 154.903 52.343 144.021 61.647 134.44 72.517 C 121.325 87.396 111.712 104.272 105.393 123.065 C 101.13 135.737 98.784 148.788 98.143 162.104 C 97.438 176.765 99.037 191.223 102.716 205.464 C 105.936 217.929 110.534 229.841 117.183 240.834 C 122.231 249.18 127.886 257.161 133.341 265.258 C 137.971 272.131 142.687 278.943 147.385 285.766 C 153.712 294.958 160.019 304.166 166.409 313.313 C 173.862 323.982 181.027 334.803 185.647 347.09 C 189.246 356.665 192.534 366.304 192.713 376.702 C 192.76 379.403 194.05 381.471 196.163 383.156 C 200.585 386.679 205.716 388.22 211.216 388.244 C 233.089 388.341 254.962 388.328 276.836 388.252 C 281.945 388.234 286.685 386.642 290.823 383.582 C 292.779 382.136 294.567 380.284 294.58 377.712 C 294.616 370.491 296.253 363.607 298.351 356.772 C 301.624 346.104 305.942 335.863 312.151 326.616 C 325.012 307.465 338.224 288.549 351.255 269.513 C 353.516 266.209 355.374 262.607 357.811 259.445 C 363.716 251.788 369.028 243.781 373.422 235.161 C 378.605 224.997 382.666 214.399 385.212 203.282 C 386.63 197.093 387.444 190.766 388.547 184.118 Z" style="" bx:origin="0.500023 0.60745"/>
  <path fill="#D86EBA" opacity="1.000000" stroke="none" d="M 283.16 441.448 C 253.124 441.448 223.294 441.461 193.463 441.432 C 189.433 441.428 185.746 440.403 183.064 437.062 C 179.993 433.237 179.755 428.934 181.58 424.673 C 183.444 420.322 187.127 418.131 191.867 418.097 C 201.536 418.026 211.205 418.076 220.875 418.076 C 245.631 418.076 270.388 418.073 295.143 418.078 C 302.014 418.08 307.197 423.252 306.942 430.101 C 306.71 436.352 301.967 441.174 294.68 441.423 C 290.912 441.55 287.138 441.447 283.16 441.448 Z" style="" bx:origin="0.500756 -7.173694"/>
  <path fill="#D86EBA" opacity="1.000000" stroke="none" d="M 265.056 448.166 C 275.204 448.166 285.149 448.151 295.092 448.171 C 302.254 448.185 307.526 453.652 306.914 460.763 C 306.401 466.724 301.775 471.518 294.125 471.532 C 279.176 471.56 264.226 471.542 249.276 471.542 C 230.624 471.542 211.971 471.566 193.317 471.52 C 189.364 471.51 185.753 470.461 183.104 467.201 C 180.004 463.387 179.719 459.067 181.568 454.825 C 183.47 450.464 187.16 448.181 192.022 448.173 C 206.902 448.153 221.783 448.166 236.664 448.166 C 246.059 448.166 255.454 448.166 265.056 448.166 Z" style="" bx:origin="0.500758 -8.472812"/>
  <path fill="#D86EBA" opacity="1.000000" stroke="none" d="M 250.654 499.971 C 237.143 499.97 223.841 500.01 210.537 499.952 C 203.512 499.921 198.281 494.63 198.491 487.88 C 198.683 481.693 204.377 476.801 209.577 476.841 C 232.343 477.01 255.112 476.997 277.878 476.859 C 284.169 476.82 289.612 483.359 288.676 489.76 C 287.776 495.929 282.454 500.074 276.575 499.999 C 268.005 499.889 259.432 499.971 250.654 499.971 Z" style="" bx:origin="0.501684 -9.79497"/>
  <path fill="#030303" opacity="1.000000" stroke="none" d="M 276.732 215.635 C 276.732 203.545 276.733 191.66 276.731 179.778 C 276.73 176.99 276.726 176.987 273.858 176.987 C 253.628 176.987 233.397 176.987 213.167 176.987 C 209.991 176.987 209.99 176.989 209.99 180.083 C 209.989 213.122 209.989 246.161 209.989 279.202 C 209.989 279.949 209.989 280.699 209.989 281.628 C 202.251 281.628 194.62 281.628 186.857 281.628 C 186.857 223.665 186.857 165.66 186.857 107.517 C 194.515 107.517 202.141 107.517 209.983 107.517 C 209.983 123.667 209.983 139.702 209.983 155.85 C 232.307 155.85 254.417 155.85 276.687 155.85 C 276.687 139.719 276.687 123.737 276.687 107.568 C 284.474 107.568 292.1 107.568 299.866 107.568 C 299.866 165.566 299.866 223.564 299.866 281.687 C 292.243 281.687 284.659 281.687 276.732 281.687 C 276.732 259.726 276.732 237.784 276.732 215.635 Z" style="" bx:origin="0.503754 0.818068"/>
</svg>